<svg version="1.2" xmlns="http://www.w3.org/2000/svg" viewBox="0 0 500 372" width="500" height="372"><style>.a{fill:#ebebeb}.b{fill:#f0f0f0}.c{fill:#f5f5f5}.d{fill:#e6e6e6}.e{fill:#e0e0e0}.f{fill:#407bff}.g{opacity:.3;fill:#fff}.h{opacity:.4;fill:#fff}.i{fill:#fff}.j{opacity:.1}.k{fill:#263238}.l{opacity:.2}.m{opacity:.7;fill:#fff}.n{opacity:.5;fill:#fff}.o{opacity:.2;fill:#fff}.p{fill:#b55b52}.q{fill:#a02724}.r{opacity:.4}.s{opacity:.6;fill:#fafafa}.t{opacity:.6;fill:#fff}.u{opacity:.6}</style><path fill-rule="evenodd" class="a" d="m416.8 343.5h33.1v0.2h-33.1z"/><path fill-rule="evenodd" class="a" d="m322.5 346.2h8.7v0.3h-8.7z"/><path fill-rule="evenodd" class="a" d="m396.6 334.2h19.2v0.3h-19.2z"/><path fill-rule="evenodd" class="a" d="m52.5 335.9h43.2v0.2h-43.2z"/><path fill-rule="evenodd" class="a" d="m104.6 335.9h6.3v0.2h-6.3z"/><path fill-rule="evenodd" class="a" d="m131.5 340.1h93.7v0.3h-93.7z"/><path class="a" d="m238.4 282.8h-193.1q-1.1 0-2.2-0.4-1-0.5-1.8-1.3-0.8-0.8-1.3-1.8-0.4-1.1-0.4-2.2v-271.4q0-1.2 0.4-2.2 0.5-1 1.3-1.8 0.8-0.8 1.8-1.3 1.1-0.4 2.2-0.4h193.1q1.1 0 2.2 0.4 1 0.5 1.8 1.3 0.8 0.8 1.3 1.8 0.4 1.1 0.4 2.2v271.4q0 1.1-0.4 2.2-0.5 1-1.3 1.8-0.8 0.8-1.8 1.3-1.1 0.4-2.2 0.4zm-193.1-282.6q-1.1 0-2.1 0.4-1 0.4-1.8 1.2-0.7 0.8-1.1 1.8-0.5 1-0.5 2.1v271.4q0 1.1 0.5 2.1 0.4 1 1.1 1.7 0.8 0.8 1.8 1.2 1 0.4 2.1 0.4h193.1q1.1 0 2.1-0.4 1-0.4 1.8-1.2 0.7-0.7 1.1-1.7 0.5-1 0.5-2.1v-271.4q0-1.1-0.5-2.1-0.4-1-1.1-1.8-0.8-0.8-1.8-1.2-1-0.4-2.1-0.4z"/><path class="a" d="m454.7 282.8h-193.1q-1.1 0-2.2-0.4-1-0.5-1.8-1.3-0.8-0.8-1.3-1.8-0.4-1.1-0.4-2.2v-271.4q0-1.2 0.4-2.2 0.5-1 1.3-1.8 0.8-0.8 1.8-1.3 1.1-0.4 2.2-0.4h193.1q1.1 0 2.2 0.4 1 0.5 1.8 1.3 0.8 0.8 1.3 1.8 0.4 1.1 0.4 2.2v271.4q0 1.1-0.4 2.2-0.5 1-1.3 1.8-0.8 0.8-1.8 1.3-1.1 0.4-2.2 0.4zm-193.1-282.6q-1.1 0-2.1 0.4-1 0.4-1.8 1.2-0.7 0.8-1.1 1.8-0.5 1-0.5 2.1v271.4q0 1.1 0.5 2.1 0.4 1 1.1 1.7 0.8 0.8 1.8 1.2 1 0.4 2.1 0.4h193.1q1.1 0 2.1-0.4 1-0.4 1.8-1.2 0.7-0.7 1.1-1.7 0.5-1 0.5-2.1v-271.4q0-1.1-0.5-2.1-0.4-1-1.1-1.8-0.8-0.8-1.8-1.2-1-0.4-2.1-0.4z"/><path fill-rule="evenodd" class="a" d="m0 327.4h500v0.3h-500z"/><path class="b" d="m119.3 259.8c-0.8-9.7-10.7-13.3-22.4-12.3-11.6 1-20.7 6.3-19.9 15.9z"/><path class="b" d="m96.6 243.1c5.4-0.5 7.1-5.1 6.6-10.5-0.4-5.4-3-9.6-8.4-9.2-5.4 0.5-7.1 5.1-6.6 10.5 0.4 5.4 2.9 9.7 8.4 9.2z"/><path class="c" d="m340.1 54c0.2 2.2-1 4.3-2.9 5.3-2 1-4.3 0.8-6-0.7-1.7-1.4-2.4-3.7-1.7-5.8 0.7-2.1 2.5-3.5 4.7-3.7q1.1-0.1 2.1 0.2 1 0.3 1.9 1 0.8 0.7 1.3 1.7 0.5 0.9 0.6 2z"/><path class="c" d="m370.2 51.3c0.2 2.2-1 4.3-2.9 5.3-2 1-4.4 0.8-6-0.6-1.7-1.4-2.4-3.7-1.7-5.8 0.6-2.1 2.5-3.6 4.7-3.8q1.1-0.1 2.1 0.2 1 0.4 1.9 1.1 0.8 0.7 1.3 1.6 0.5 1 0.6 2z"/><path class="c" d="m400.3 48.7c0.1 2.2-1 4.3-3 5.3-1.9 1-4.3 0.8-6-0.6-1.7-1.5-2.3-3.7-1.7-5.8 0.7-2.1 2.6-3.6 4.8-3.8q1-0.1 2.1 0.2 1 0.3 1.8 1 0.9 0.7 1.4 1.7 0.5 0.9 0.5 2z"/><path class="c" d="m342.8 84.6c0.2 2.2-1 4.3-2.9 5.3-2 1-4.3 0.8-6-0.6-1.7-1.4-2.4-3.7-1.7-5.8 0.6-2.1 2.5-3.6 4.7-3.8q1.1-0.1 2.1 0.2 1 0.3 1.9 1 0.8 0.7 1.3 1.7 0.5 0.9 0.6 2z"/><path class="c" d="m372.9 82c0.1 2.2-1 4.3-3 5.3-1.9 1-4.3 0.7-6-0.7-1.6-1.4-2.3-3.7-1.6-5.8 0.6-2.1 2.5-3.5 4.7-3.7q1-0.1 2.1 0.2 1 0.3 1.8 1 0.9 0.7 1.4 1.7 0.5 0.9 0.6 2z"/><path class="c" d="m402.9 79.4c0.2 2.2-0.9 4.2-2.9 5.3-1.9 1-4.3 0.7-6-0.7-1.7-1.4-2.3-3.7-1.7-5.8 0.7-2.1 2.5-3.6 4.7-3.8q1.1-0.1 2.1 0.3 1.1 0.3 1.9 1 0.8 0.7 1.3 1.6 0.5 1 0.6 2.1z"/><path class="c" d="m345.5 115.3c0.1 2.2-1 4.3-2.9 5.3-2 1-4.4 0.7-6-0.7-1.7-1.4-2.4-3.7-1.7-5.8 0.6-2.1 2.5-3.6 4.7-3.8q1.1-0.1 2.1 0.3 1 0.3 1.8 1 0.9 0.7 1.4 1.6 0.5 1 0.6 2.1z"/><path class="c" d="m375.5 112.6c0.2 2.2-0.9 4.3-2.9 5.3-1.9 1.1-4.3 0.8-6-0.6-1.7-1.4-2.3-3.7-1.7-5.8 0.7-2.1 2.6-3.6 4.8-3.8q1-0.1 2.1 0.2 1 0.4 1.8 1.1 0.8 0.6 1.3 1.6 0.5 1 0.6 2z"/><path class="c" d="m405.6 110c0.2 2.2-0.9 4.3-2.9 5.3-1.9 1-4.3 0.8-6-0.7-1.7-1.4-2.4-3.7-1.7-5.8 0.7-2.1 2.5-3.5 4.7-3.7q1.1-0.1 2.1 0.2 1.1 0.3 1.9 1 0.8 0.7 1.3 1.7 0.5 0.9 0.6 2z"/><path class="d" d="m399.1 111.8l-61.8 5.4 54.8-66.6-56.1 4.9q-0.2 0.1-0.5 0-0.2-0.1-0.4-0.2-0.2-0.2-0.3-0.4-0.1-0.2-0.1-0.5 0-0.2 0.1-0.4 0-0.2 0.2-0.4 0.1-0.2 0.3-0.3 0.3-0.1 0.5-0.2l61.8-5.4-54.8 66.6 56.1-4.9q0.3 0 0.5 0.1 0.2 0 0.4 0.2 0.2 0.1 0.3 0.3 0.1 0.3 0.1 0.5 0 0.2 0 0.5-0.1 0.2-0.3 0.4-0.1 0.1-0.3 0.3-0.3 0.1-0.5 0.1z"/><path class="b" d="m400.1 230.6q-0.1-0.2-0.2-0.4-0.2-0.2-0.4-0.3-0.1-0.2-0.3-0.3-0.3 0-0.5-0.1-1 0-2-0.2-0.9-0.3-1.8-0.7-1-0.4-1.8-0.9-0.8-0.6-1.5-1.3c-2.5-2.5-3.9-6.3-4.2-10.7q0-0.4-0.1-0.6-0.2-0.3-0.4-0.5-0.2-0.2-0.5-0.3-0.3-0.1-0.6-0.1-0.3 0-0.6 0.1-0.3 0.1-0.5 0.4-0.3 0.2-0.4 0.5-0.1 0.3-0.1 0.6c0.3 5.3 2.1 9.8 5.1 12.8q0.9 0.9 1.9 1.6 1.1 0.8 2.2 1.3 1.1 0.5 2.3 0.8 1.2 0.3 2.5 0.4h0.2q0.4 0 0.8-0.1 0.4-0.2 0.6-0.5 0.2-0.3 0.3-0.7 0.1-0.4 0-0.8z"/><path class="b" d="m396.9 249.8c-13.3-1.2-22.8-10.2-25.9-24.3q0-0.3 0-0.6 0.1-0.4 0.3-0.6 0.1-0.3 0.4-0.5 0.3-0.2 0.6-0.2 0.3-0.1 0.6 0 0.3 0 0.6 0.2 0.2 0.2 0.4 0.4 0.2 0.3 0.3 0.6c2.7 12.7 11.2 20.8 22.9 21.8 13 1.1 26.8-7.4 29.3-28.8q0.1-0.3 0.2-0.6 0.2-0.2 0.4-0.4 0.2-0.2 0.5-0.3 0.3-0.1 0.7-0.1 0.3 0 0.6 0.2 0.3 0.1 0.5 0.4 0.2 0.2 0.3 0.5 0 0.3 0 0.6c-2.4 20.3-15.7 33.2-32.7 31.7z"/><path class="b" d="m371.9 211.5q-0.4-0.1-0.6-0.2-0.3-0.2-0.5-0.4-0.2-0.3-0.3-0.6-0.1-0.3-0.1-0.6c2.4-20.2 15.7-33.2 32.7-31.7 15 1.4 25.1 12.6 26.7 29.4q0 0.4-0.1 0.7-0.1 0.3-0.3 0.5-0.2 0.2-0.5 0.4-0.3 0.1-0.6 0.2-0.4 0-0.6-0.1-0.3-0.1-0.6-0.4-0.2-0.2-0.4-0.4-0.1-0.3-0.1-0.6c-1.5-15.2-10.4-25.3-23.7-26.5-12.9-1.1-26.8 7.4-29.3 28.8q0 0.3-0.2 0.6-0.1 0.3-0.4 0.5-0.2 0.2-0.5 0.3-0.3 0.1-0.6 0.1z"/><path class="b" d="m397.5 241.2q-0.9 0-1.8-0.2-0.8-0.1-1.7-0.3-0.9-0.3-1.7-0.5-0.9-0.3-1.7-0.7-0.3-0.1-0.5-0.4-0.2-0.2-0.4-0.5-0.1-0.4 0-0.7 0-0.3 0.2-0.6 0.1-0.3 0.3-0.5 0.2-0.2 0.5-0.3 0.3-0.1 0.6-0.1 0.3 0.1 0.6 0.2 0.7 0.3 1.5 0.6 0.8 0.2 1.7 0.4 0.8 0.2 1.6 0.3 0.9 0.1 1.7 0.2c9.8 0.5 20.2-6.4 21.2-23.1 0.6-10.4-2.9-18.7-9.5-22.7q-0.3-0.2-0.5-0.4-0.2-0.2-0.2-0.5-0.1-0.3-0.1-0.6 0-0.3 0.1-0.6 0.2-0.3 0.5-0.5 0.2-0.2 0.5-0.3 0.4-0.1 0.7-0.1 0.3 0.1 0.6 0.3c7.7 4.6 11.8 14 11.1 25.5-1 16.2-11.1 27-24.6 26.2z"/><path class="b" d="m383.3 231.3q-0.3 0.1-0.6 0.2-0.4 0.1-0.7 0-0.3-0.1-0.6-0.3-0.3-0.2-0.4-0.5-1.1-2-1.9-4.2-0.8-2.2-1.3-4.5-0.5-2.3-0.6-4.6-0.2-2.3 0-4.7c0.9-15.4 10.2-26 22.8-26.1q0.3-0.1 0.7 0.1 0.3 0.1 0.5 0.3 0.2 0.3 0.4 0.6 0.1 0.3 0 0.6 0 0.3-0.1 0.6-0.1 0.3-0.3 0.5-0.3 0.2-0.5 0.3-0.3 0.1-0.6 0.1c-9.4 0.2-18.7 7.3-19.7 23.2q-0.2 2.1 0 4.2 0.1 2.1 0.5 4.2 0.4 2.1 1.1 4 0.8 2 1.7 3.9 0.2 0.2 0.2 0.5 0.1 0.3 0 0.6 0 0.3-0.2 0.6-0.2 0.2-0.4 0.4z"/><path class="b" d="m405.1 230q-0.1-0.3-0.1-0.6 0-0.2 0.1-0.5 0.1-0.3 0.3-0.5 0.1-0.3 0.4-0.4c4.2-2.5 6.8-7.8 6.8-14.3 0-5.1-1.4-9.4-4.2-12.2q-0.8-0.8-1.7-1.4-1-0.6-2-1-1.1-0.4-2.2-0.6-1.1-0.2-2.2-0.2c-4.9 0-8.9 2.8-11.1 7.5q-0.2 0.3-0.4 0.5-0.2 0.2-0.5 0.3-0.2 0.1-0.5 0.1-0.3 0-0.6-0.1-0.3-0.1-0.6-0.3-0.2-0.3-0.4-0.6-0.1-0.3-0.1-0.6 0-0.4 0.2-0.7c2.7-5.8 7.8-9.2 14-9.2q1.4-0.1 2.8 0.2 1.4 0.2 2.8 0.7 1.3 0.6 2.5 1.4 1.2 0.8 2.3 1.8c3.3 3.3 5.1 8.5 5.1 14.5-0.1 7.5-3.3 13.9-8.4 17q-0.3 0.1-0.7 0.2-0.3 0-0.6-0.1-0.3-0.1-0.6-0.4-0.2-0.2-0.4-0.5z"/><path class="b" d="m393.6 218.2q-0.3 0.1-0.7 0.1-0.3 0-0.6-0.2-0.3-0.1-0.6-0.4-0.2-0.3-0.3-0.6-0.1-0.7-0.2-1.4c-0.9-6 2.3-11.1 7.5-12.1q0.9-0.2 1.8-0.2 0.9 0.1 1.8 0.3 0.9 0.2 1.7 0.7 0.8 0.4 1.5 1 0.3 0.2 0.4 0.6 0.2 0.3 0.2 0.6-0.1 0.4-0.2 0.7-0.2 0.3-0.5 0.5l-0.1 0.1q-0.2 0.1-0.5 0.2-0.2 0.1-0.5 0.1-0.3-0.1-0.5-0.2-0.3-0.1-0.5-0.3-0.4-0.3-0.9-0.6-0.5-0.2-1-0.4-0.6-0.1-1.1-0.1-0.6 0-1.1 0.1c-3.9 0.7-5.4 4.8-4.9 8.5q0.1 0.6 0.2 1 0.1 0.3 0.1 0.6-0.1 0.3-0.2 0.5-0.1 0.3-0.3 0.5-0.3 0.2-0.5 0.3z"/><path class="b" d="m398.9 224.4q-0.4-0.1-0.7-0.3-0.3-0.2-0.5-0.6-0.2-0.3-0.1-0.7 0-0.4 0.2-0.7l0.1-0.2q0.1-0.2 0.3-0.3 0.1-0.2 0.3-0.3 0.2-0.1 0.4-0.1 0.2 0 0.4 0 0.2 0 0.4 0 0.2 0 0.3 0 0.2 0 0.4-0.1 0.2 0 0.4 0c3.4-0.6 5-3.8 5-7.1q0-0.3 0.1-0.6 0.1-0.2 0.3-0.5 0.2-0.2 0.4-0.3 0.3-0.2 0.5-0.2 0.4-0.1 0.7 0 0.3 0.1 0.6 0.3 0.3 0.2 0.4 0.5 0.2 0.3 0.2 0.7c0.1 5.2-3 9.5-7.6 10.3q-0.3 0.1-0.7 0.1-0.3 0.1-0.6 0.1-0.3 0-0.6 0-0.3 0-0.6 0z"/><path class="b" d="m399.6 218.4q-0.6 0-1.2-0.2-0.5-0.3-1-0.7-0.4-0.4-0.8-0.9-0.3-0.5-0.4-1.1-0.1-0.3 0-0.7 0-0.3 0.3-0.6 0.2-0.2 0.5-0.4 0.3-0.1 0.7-0.1h0.3q0.3 0 0.5 0.1 0.1 0.1 0.3 0.2 0.2 0.2 0.3 0.3 0.1 0.2 0.2 0.4 0 0.1 0.1 0.2 0 0.1 0.1 0.2 0.1 0 0.2 0.1 0.1 0 0.2 0c0.8 0.1 0.9-1 0.9-1.2q0-0.2 0-0.3 0-0.2 0-0.3 0-0.1-0.1-0.3 0-0.1-0.1-0.3-0.1-0.1-0.2-0.2-0.1-0.2-0.1-0.3-0.1-0.2-0.1-0.3 0-0.2 0-0.3 0-0.5 0.3-0.9 0.4-0.4 0.8-0.5 0.5-0.2 1 0 0.4 0.1 0.7 0.5 0.3 0.3 0.5 0.8 0.2 0.4 0.4 0.8 0.1 0.5 0.1 0.9 0.1 0.5 0 1c-0.2 2.6-2.1 4.3-4.4 4.1z"/><path class="b" d="m369.5 182.7q-0.3-0.1-0.6-0.2-0.3-0.2-0.5-0.4-0.2-0.3-0.3-0.6 0-0.3 0-0.6l1.2-13.8 13.9 1.2q0.3 0 0.6 0.1 0.2 0.2 0.4 0.4 0.2 0.3 0.3 0.6 0.1 0.3 0.1 0.6 0 0.3-0.2 0.6-0.1 0.3-0.4 0.5-0.2 0.2-0.5 0.3-0.3 0.1-0.6 0.1l-10.7-1-0.9 10.7q-0.1 0.3-0.2 0.6-0.2 0.3-0.4 0.5-0.2 0.2-0.5 0.3-0.4 0.1-0.7 0.1z"/><path class="b" d="m435.5 188.4q-0.4 0-0.6-0.2-0.3-0.1-0.5-0.3-0.2-0.3-0.3-0.6-0.1-0.3-0.1-0.6l0.9-10.7-10.6-0.9q-0.4 0-0.6-0.2-0.3-0.1-0.5-0.4-0.2-0.2-0.3-0.5-0.1-0.3-0.1-0.7 0-0.3 0.2-0.6 0.1-0.2 0.4-0.4 0.2-0.2 0.5-0.3 0.3-0.1 0.6-0.1l13.9 1.2-1.2 13.9q0 0.3-0.2 0.6-0.1 0.3-0.4 0.5-0.2 0.2-0.5 0.3-0.3 0-0.6 0z"/><path class="b" d="m430.6 263l-13.9-1.2q-0.3 0-0.6-0.2-0.3-0.1-0.5-0.4-0.2-0.2-0.3-0.5-0.1-0.3-0.1-0.6 0.1-0.4 0.2-0.6 0.1-0.3 0.4-0.5 0.2-0.2 0.5-0.3 0.3-0.1 0.7-0.1l10.6 0.9 1-10.6q0-0.4 0.1-0.6 0.2-0.3 0.4-0.5 0.3-0.2 0.6-0.3 0.3-0.1 0.6-0.1 0.3 0 0.6 0.2 0.3 0.1 0.5 0.4 0.2 0.2 0.3 0.5 0.1 0.3 0.1 0.6z"/><path class="b" d="m375.3 258.1l-13.9-1.2 1.2-13.8q0.1-0.4 0.2-0.6 0.2-0.3 0.4-0.5 0.3-0.2 0.6-0.3 0.3-0.1 0.6-0.1 0.3 0 0.6 0.2 0.3 0.1 0.5 0.4 0.2 0.2 0.3 0.5 0.1 0.3 0 0.6l-0.9 10.7 10.7 0.9q0.3 0.1 0.6 0.2 0.3 0.2 0.5 0.4 0.2 0.2 0.3 0.5 0.1 0.4 0 0.7 0 0.3-0.1 0.6-0.2 0.3-0.4 0.5-0.3 0.2-0.6 0.3-0.3 0.1-0.6 0z"/><path class="e" d="m74.7 228.1q-0.2 0-0.4 0-0.1-0.1-0.3-0.2-0.1-0.1-0.2-0.3-0.1-0.2-0.1-0.4l-0.8-8.5 8.5-0.7q0.2-0.1 0.4 0 0.2 0.1 0.4 0.2 0.1 0.1 0.2 0.3 0.1 0.2 0.1 0.4 0 0.2 0 0.3-0.1 0.2-0.2 0.4-0.2 0.1-0.3 0.2-0.2 0.1-0.4 0.1l-6.6 0.6 0.6 6.6q0 0.2 0 0.3-0.1 0.2-0.2 0.4-0.1 0.1-0.3 0.2-0.2 0.1-0.4 0.1z"/><path class="e" d="m115.3 224.6q-0.2 0-0.4-0.1-0.2 0-0.3-0.1-0.2-0.2-0.3-0.3-0.1-0.2-0.1-0.4l-0.6-6.6-6.5 0.6q-0.2 0-0.4 0-0.2-0.1-0.4-0.2-0.1-0.2-0.2-0.3-0.1-0.2-0.1-0.4 0-0.2 0-0.4 0.1-0.2 0.2-0.3 0.1-0.2 0.3-0.3 0.2-0.1 0.4-0.1l8.5-0.7 0.8 8.5q0 0.2-0.1 0.4 0 0.2-0.2 0.3-0.1 0.2-0.3 0.3-0.1 0.1-0.3 0.1z"/><path class="e" d="m119.5 261.3l-8.6 0.7q-0.2 0.1-0.3 0-0.2-0.1-0.4-0.2-0.1-0.1-0.2-0.3-0.1-0.2-0.1-0.4 0-0.2 0-0.3 0.1-0.2 0.2-0.4 0.1-0.1 0.3-0.2 0.2-0.1 0.4-0.1l6.5-0.6-0.5-6.6q-0.1-0.2 0-0.3 0.1-0.2 0.2-0.4 0.1-0.1 0.3-0.2 0.2-0.1 0.4-0.1 0.1 0 0.3 0 0.2 0.1 0.4 0.2 0.1 0.1 0.2 0.3 0.1 0.2 0.1 0.4z"/><path class="e" d="m85.5 264.3l-8.5 0.7-0.8-8.5q0-0.2 0.1-0.4 0.1-0.2 0.2-0.3 0.1-0.2 0.3-0.3 0.2-0.1 0.4-0.1 0.1 0 0.3 0.1 0.2 0 0.4 0.1 0.1 0.2 0.2 0.3 0.1 0.2 0.1 0.4l0.6 6.6 6.6-0.6q0.1 0 0.3 0 0.2 0.1 0.4 0.2 0.1 0.1 0.2 0.3 0.1 0.2 0.1 0.4 0 0.2 0 0.4-0.1 0.2-0.2 0.3-0.2 0.2-0.3 0.3-0.2 0-0.4 0.1z"/><path class="a" d="m114.6 86l-32.6 2.8-0.7-7.6c0-3.7 1.3-7.2 3.8-9.9 2.4-2.7 5.8-4.4 9.4-4.7 3.6-0.3 7.2 0.7 10.1 3 2.9 2.2 4.8 5.5 5.4 9.1l0.4 4.4 4.7-0.4-0.4-4.5c-0.4-5-2.9-9.7-6.8-13-3.9-3.2-8.9-4.8-13.9-4.4-5.1 0.5-9.8 2.9-13 6.8-3.3 3.9-4.9 8.9-4.4 14l0.6 7.7q-1.4 0.2-2.6 1-1.2 0.7-2 1.9-0.9 1.1-1.3 2.5-0.4 1.3-0.2 2.7l2.3 26.7q0.1 1.5 0.8 2.9 0.7 1.3 1.9 2.3 1.2 1 2.6 1.5 1.5 0.4 3 0.3l36.5-3.2q1.6-0.1 2.9-0.8 1.4-0.7 2.4-1.9 0.9-1.2 1.4-2.6 0.5-1.5 0.3-3l-2.3-26.6q-0.1-1.6-0.8-2.9-0.8-1.4-1.9-2.3-1.2-1-2.6-1.5-1.5-0.4-3-0.3zm-13.9 20.5l0.8 9.2c0.1 0.7-0.1 1.5-0.5 2.1-0.5 0.6-1.2 1-2 1-0.7 0.1-1.4-0.2-2-0.7-0.6-0.5-0.9-1.2-0.9-1.9l-0.8-9.2c-1.7-1-2.6-3-2.1-5 0.5-1.9 2.1-3.3 4.1-3.5 2-0.2 3.8 0.9 4.6 2.8 0.8 1.8 0.3 3.9-1.2 5.2z"/><path class="b" d="m170.4 101.4l-3.3-5.4q-0.6 0.1-1.2 0.1-0.6 0.1-1.3 0.1-0.6 0-1.2-0.1-0.6 0-1.3-0.1l-3.3 5.4-0.6-0.2q-0.8-0.2-1.6-0.5-0.8-0.2-1.5-0.6-0.8-0.3-1.5-0.6-0.8-0.4-1.5-0.8l-0.5-0.3 1.3-5.9q0.1-0.2 0.2-0.3 0.1-0.1 0.2-0.2 0.2-0.1 0.4-0.2 0.1 0 0.3 0.1 0.2 0 0.3 0.1 0.2 0.1 0.3 0.3 0.1 0.1 0.1 0.3 0 0.1 0 0.3l-1.1 4.6q0.5 0.3 1 0.5 0.6 0.3 1.2 0.5 0.5 0.2 1.1 0.5 0.6 0.2 1.1 0.3l3.3-5.2 0.5 0.1q0.7 0.1 1.5 0.1 0.7 0.1 1.4 0.1 0.7 0 1.4-0.1 0.7 0 1.4-0.1l0.6-0.1 3.2 5.2q0.6-0.1 1.1-0.3 0.6-0.2 1.2-0.5 0.5-0.2 1.1-0.5 0.5-0.2 1.1-0.5l-1.5-6 0.5-0.4q0.5-0.3 1-0.7 0.4-0.4 0.9-0.8 0.4-0.4 0.8-0.9 0.4-0.4 0.8-0.9 0.1-0.1 0.2-0.2 0.2-0.1 0.3-0.1 0.2 0 0.4 0 0.2 0 0.3 0.1 0.1 0.1 0.2 0.3 0.1 0.1 0.2 0.3 0 0.2-0.1 0.4 0 0.1-0.1 0.3-0.4 0.4-0.8 0.9-0.4 0.4-0.8 0.8-0.4 0.5-0.9 0.8-0.4 0.4-0.9 0.8l1.5 6.1-0.6 0.4q-0.7 0.4-1.4 0.7-0.8 0.4-1.5 0.7-0.8 0.3-1.6 0.6-0.8 0.3-1.6 0.5zm-20.2-11.8q-0.4-0.4-0.8-1l-6.1 1.5-0.4-0.6q-0.4-0.7-0.7-1.4-0.4-0.8-0.7-1.5-0.3-0.8-0.6-1.6-0.3-0.8-0.5-1.6l-0.2-0.6 5.4-3.3q-0.1-0.6-0.1-1.2-0.1-0.7-0.1-1.3 0-0.6 0.1-1.2 0-0.7 0.1-1.3l-5.4-3.3 0.2-0.6q0.2-0.8 0.5-1.6 0.3-0.8 0.6-1.5 0.3-0.8 0.7-1.5 0.3-0.8 0.7-1.5l0.4-0.6 6.1 1.5q0.4-0.5 0.8-1 0.4-0.5 0.9-0.9 0.4-0.4 0.9-0.9 0.5-0.4 1-0.8l-1.2-4.6q0-0.2 0-0.3 0.1-0.2 0.2-0.4 0-0.1 0.2-0.2 0.1-0.1 0.3-0.2 0.2 0 0.3 0 0.2 0.1 0.4 0.1 0.1 0.1 0.2 0.3 0.1 0.1 0.1 0.3l1.4 5.8-0.4 0.3q-0.6 0.4-1.2 0.9-0.5 0.4-1 0.9-0.5 0.6-1 1.1-0.4 0.5-0.8 1.1l-0.4 0.5-6-1.4q-0.3 0.5-0.5 1-0.3 0.6-0.5 1.1-0.3 0.6-0.5 1.2-0.2 0.5-0.4 1.1l5.3 3.2-0.1 0.6q-0.1 0.7-0.2 1.4 0 0.7 0 1.4 0 0.8 0 1.5 0.1 0.7 0.2 1.4l0.1 0.6-5.3 3.2q0.2 0.6 0.4 1.1 0.2 0.6 0.5 1.2 0.2 0.5 0.5 1.1 0.2 0.5 0.5 1l6-1.4 0.4 0.5q0.1 0.2 0.2 0.3 0.1 0.2 0.2 0.4 0.2 0.1 0.3 0.3 0.1 0.1 0.3 0.3 0.1 0.1 0.1 0.3 0.1 0.1 0.1 0.3 0 0.2-0.1 0.3 0 0.2-0.1 0.3-0.2 0.1-0.3 0.2-0.2 0-0.4 0-0.2 0-0.3 0-0.2-0.1-0.3-0.3zm35.7 0.5l-2.2-0.5q-0.2-0.1-0.3-0.2-0.2-0.1-0.3-0.2-0.1-0.2-0.1-0.3 0-0.2 0-0.4 0.1-0.1 0.2-0.3 0.1-0.1 0.2-0.2 0.2-0.1 0.3-0.1 0.2-0.1 0.4 0l1 0.2q0.3-0.5 0.5-1.1 0.3-0.5 0.5-1.1 0.3-0.5 0.5-1.1 0.2-0.6 0.3-1.1l-5.2-3.3 0.1-0.6q0.1-0.7 0.2-1.4 0-0.7 0-1.4 0-0.7 0-1.4-0.1-0.7-0.2-1.4l-0.1-0.6 5.2-3.2q-0.1-0.6-0.3-1.2-0.2-0.5-0.5-1.1-0.2-0.5-0.5-1.1-0.2-0.5-0.5-1.1l-6 1.5-0.4-0.5q-0.4-0.6-0.8-1.1-0.5-0.6-1-1.1-0.5-0.5-1-0.9-0.6-0.5-1.2-0.9l-0.4-0.4 1.4-6q-0.5-0.3-1.1-0.5-0.5-0.3-1.1-0.5-0.5-0.2-1.1-0.4-0.6-0.2-1.2-0.4l-3.2 5.3-0.6-0.1q-0.7-0.1-1.4-0.2-0.7 0-1.4 0-0.7 0-1.4 0-0.7 0.1-1.4 0.2l-0.6 0.1-3.2-5.3-0.6 0.2q-0.2 0-0.3 0-0.2 0-0.4-0.1-0.1 0-0.2-0.2-0.1-0.1-0.2-0.2-0.1-0.2-0.1-0.4 0.1-0.2 0.1-0.3 0.1-0.2 0.2-0.3 0.2-0.1 0.3-0.2 0.7-0.2 1.4-0.4l0.6-0.1 3.3 5.3q0.6-0.1 1.2-0.1 0.7 0 1.3 0 0.6 0 1.2 0 0.7 0 1.3 0.1l3.3-5.3 0.6 0.1q0.8 0.2 1.6 0.5 0.8 0.3 1.5 0.6 0.8 0.3 1.6 0.7 0.7 0.3 1.4 0.8l0.6 0.3-1.5 6.1q0.5 0.4 1 0.8 0.5 0.4 0.9 0.9 0.5 0.4 0.9 0.9 0.4 0.5 0.8 1l6.1-1.5 0.3 0.6q0.4 0.7 0.8 1.4 0.4 0.8 0.7 1.5 0.3 0.8 0.6 1.6 0.2 0.8 0.5 1.6l0.1 0.6-5.4 3.3q0.1 0.6 0.2 1.2 0 0.7 0 1.3 0 0.6 0 1.3-0.1 0.6-0.2 1.2l5.4 3.3-0.1 0.6q-0.3 0.8-0.5 1.6-0.3 0.8-0.6 1.6-0.3 0.7-0.7 1.5-0.4 0.7-0.8 1.4zm-21.6-4.5q-1.6-0.1-3.1-0.7-1.5-0.7-2.6-1.8-1.2-1.2-1.8-2.7-0.7-1.5-0.8-3.1 0-1.6 0.5-3.2 0.6-1.5 1.6-2.7 1.1-1.2 2.5-2 1.4-0.7 3-0.9 0.2 0 0.4 0 0.2 0.1 0.3 0.2 0.2 0.2 0.2 0.3 0.1 0.2 0.1 0.4 0 0.1 0 0.3-0.1 0.1-0.2 0.3-0.1 0.1-0.3 0.2-0.1 0-0.3 0.1c-3 0.3-5.4 2.6-5.9 5.7-0.5 3 1.1 6 3.9 7.2 2.8 1.3 6.1 0.5 8.1-1.8 1.9-2.4 2-5.8 0.3-8.3q-0.1-0.1-0.1-0.3-0.1-0.1-0.1-0.3 0.1-0.1 0.1-0.3 0.1-0.1 0.2-0.2 0.2-0.2 0.4-0.2 0.1-0.1 0.3 0 0.2 0 0.4 0.1 0.1 0.1 0.2 0.2c0.9 1.3 1.5 2.9 1.6 4.4 0.1 1.6-0.3 3.2-1 4.6-0.8 1.4-1.9 2.6-3.3 3.4-1.4 0.7-3 1.1-4.6 1.1z"/><path class="d" d="m108.3 174.6l-2.1-3.5q-0.4 0.1-0.8 0.1-0.4 0-0.8 0-0.5 0-0.9 0-0.4 0-0.8-0.1l-2.1 3.5-0.4-0.1q-0.5-0.2-1-0.3-0.5-0.2-1-0.4-0.5-0.2-1-0.4-0.5-0.3-0.9-0.5l-0.4-0.3 0.9-3.7q0-0.1 0.1-0.2 0-0.1 0.1-0.2 0.1 0 0.3-0.1 0.1 0 0.2 0 0.1 0.1 0.2 0.1 0.1 0.1 0.1 0.2 0.1 0.1 0.1 0.2 0 0.1 0 0.2l-0.7 3q0.3 0.2 0.7 0.3 0.3 0.2 0.7 0.3 0.4 0.2 0.7 0.3 0.4 0.2 0.8 0.3l2.1-3.4h0.3q0.5 0.1 0.9 0.2 0.5 0 1 0 0.4 0 0.9 0 0.4-0.1 0.9-0.2h0.4l2 3.4q0.4-0.1 0.8-0.3 0.3-0.1 0.7-0.3 0.4-0.1 0.7-0.3 0.4-0.1 0.7-0.3l-0.9-3.9 0.3-0.2q0.3-0.2 0.6-0.5 0.3-0.2 0.6-0.5 0.3-0.3 0.5-0.6 0.3-0.2 0.6-0.5 0-0.1 0.1-0.2 0.1-0.1 0.2-0.1 0.1 0 0.2 0 0.1 0.1 0.2 0.1 0.1 0.1 0.2 0.2 0 0.1 0.1 0.2 0 0.1 0 0.2-0.1 0.1-0.1 0.2-0.3 0.3-0.5 0.6-0.3 0.3-0.6 0.6-0.2 0.2-0.5 0.5-0.3 0.2-0.6 0.5l1 4-0.4 0.2q-0.5 0.3-0.9 0.5-0.5 0.2-1 0.4-0.5 0.2-1 0.4-0.5 0.2-1 0.3zm-13.1-7.6l-0.5-0.6-4 0.9-0.2-0.3q-0.3-0.5-0.5-1-0.2-0.4-0.4-0.9-0.2-0.5-0.4-1-0.2-0.6-0.3-1.1l-0.1-0.4 3.5-2.1q-0.1-0.4-0.1-0.8-0.1-0.4-0.1-0.8 0-0.4 0.1-0.8 0-0.5 0.1-0.9l-3.5-2.1 0.1-0.4q0.1-0.5 0.3-1 0.2-0.5 0.4-1 0.2-0.5 0.4-1 0.3-0.5 0.5-0.9l0.2-0.4 4 1q0.3-0.3 0.5-0.7 0.3-0.3 0.6-0.6 0.3-0.3 0.5-0.5 0.3-0.3 0.7-0.6l-0.7-3q-0.1-0.1-0.1-0.2 0.1-0.1 0.1-0.2 0.1-0.1 0.2-0.2 0.1 0 0.2 0 0.1-0.1 0.2-0.1 0.1 0.1 0.2 0.1 0.1 0.1 0.2 0.2 0 0.1 0.1 0.2l0.9 3.7-0.4 0.2q-0.3 0.3-0.7 0.6-0.3 0.3-0.7 0.6-0.3 0.3-0.6 0.7-0.3 0.3-0.5 0.7l-0.3 0.3-3.8-0.9q-0.2 0.3-0.4 0.7-0.2 0.3-0.3 0.7-0.2 0.4-0.3 0.7-0.1 0.4-0.2 0.8l3.4 2-0.1 0.4q0 0.3-0.1 0.5 0 0.2 0 0.4 0 0.3 0 0.5-0.1 0.2-0.1 0.4 0 0.3 0.1 0.5 0 0.2 0 0.5 0 0.2 0 0.4 0.1 0.3 0.1 0.5l0.1 0.3-3.4 2.1q0.1 0.4 0.2 0.8 0.1 0.3 0.3 0.7 0.1 0.4 0.3 0.7 0.2 0.4 0.4 0.7l3.8-0.9 0.3 0.3q0 0.1 0.1 0.2 0.1 0.1 0.2 0.2 0.1 0.1 0.2 0.2 0 0.1 0.1 0.2 0.1 0.1 0.1 0.2 0.1 0.1 0.1 0.2 0 0.1-0.1 0.2 0 0.1-0.1 0.2 0 0.1-0.2 0.2-0.1 0-0.2 0-0.1 0-0.2 0-0.1-0.1-0.2-0.2zm23.1 0.3l-1.5-0.3q-0.1 0-0.2-0.1-0.1-0.1-0.1-0.2-0.1-0.1-0.1-0.2 0-0.1 0-0.2 0-0.1 0.1-0.2 0.1-0.1 0.2-0.1 0.1-0.1 0.2-0.1 0.1 0 0.2 0l0.6 0.1q0.2-0.3 0.4-0.7 0.2-0.3 0.3-0.7 0.2-0.3 0.3-0.7 0.1-0.4 0.2-0.7l-3.4-2.1 0.1-0.4q0-0.2 0.1-0.5 0-0.2 0-0.4 0-0.2 0-0.5 0.1-0.2 0.1-0.4 0-0.3-0.1-0.5 0-0.2 0-0.4 0-0.3 0-0.5-0.1-0.2-0.1-0.4l-0.1-0.4 3.4-2.1q-0.1-0.4-0.2-0.8-0.1-0.3-0.3-0.7-0.1-0.3-0.3-0.7-0.2-0.3-0.4-0.7l-3.8 0.9-0.3-0.3q-0.2-0.4-0.5-0.7-0.3-0.3-0.6-0.7-0.4-0.3-0.7-0.6-0.4-0.3-0.7-0.5l-0.3-0.3 0.9-3.8q-0.4-0.2-0.7-0.4-0.4-0.2-0.7-0.3-0.4-0.2-0.8-0.3-0.3-0.1-0.7-0.2l-2.1 3.4-0.4-0.1q-0.4-0.1-0.9-0.1-0.4-0.1-0.9-0.1-0.4 0-0.9 0.1-0.5 0-0.9 0.1l-0.4 0.1-2.1-3.4-0.3 0.1q-0.2 0-0.3 0-0.1 0-0.2-0.1-0.1 0-0.1-0.1-0.1-0.1-0.1-0.2-0.1-0.1-0.1-0.2 0-0.1 0.1-0.2 0-0.1 0.1-0.2 0.1-0.1 0.2-0.1l0.9-0.3 0.4-0.1 2.1 3.5q0.4 0 0.8-0.1 0.4 0 0.8 0 0.4 0 0.8 0 0.4 0.1 0.8 0.1l2.2-3.5 0.4 0.1q0.5 0.2 1 0.4 0.5 0.1 1 0.3 0.5 0.2 1 0.5 0.5 0.2 0.9 0.5l0.4 0.2-1 4q0.3 0.2 0.6 0.5 0.3 0.3 0.6 0.6 0.3 0.3 0.6 0.6 0.2 0.3 0.5 0.6l4-1 0.2 0.4q0.3 0.4 0.5 0.9 0.2 0.5 0.4 1 0.3 0.5 0.4 1 0.2 0.5 0.3 1l0.1 0.4-3.4 2.1q0 0.4 0.1 0.9 0 0.4 0 0.8 0 0.4 0 0.8-0.1 0.4-0.1 0.8l3.4 2.1-0.1 0.4q-0.1 0.5-0.3 1.1-0.1 0.5-0.4 1-0.2 0.4-0.4 0.9-0.2 0.5-0.5 1zm-13.9-3c-1.4-0.1-2.7-0.6-3.6-1.6-1-1-1.5-2.3-1.6-3.6-0.1-1.4 0.4-2.7 1.3-3.8 0.8-1 2-1.7 3.4-2q0.1 0 0.2 0.1 0.1 0 0.2 0.1 0.1 0.1 0.2 0.2 0 0.1 0 0.2 0 0.1 0 0.2-0.1 0.1-0.1 0.2-0.1 0.1-0.2 0.1-0.1 0.1-0.2 0.1c-1.7 0.2-3.1 1.4-3.7 3-0.5 1.7 0 3.5 1.3 4.6 1.3 1.2 3.1 1.5 4.7 0.8 1.6-0.8 2.6-2.3 2.6-4.1q0-0.3 0-0.6-0.1-0.4-0.2-0.7-0.1-0.3-0.2-0.6-0.2-0.3-0.4-0.6 0-0.1-0.1-0.2 0-0.1 0-0.2 0-0.1 0.1-0.2 0-0.1 0.1-0.1 0.1-0.1 0.2-0.1 0.1-0.1 0.3-0.1 0.1 0.1 0.2 0.1 0.1 0.1 0.2 0.2c0.5 0.8 0.9 1.8 0.9 2.8 0.1 1.1-0.1 2.1-0.6 3-0.5 0.9-1.2 1.6-2.1 2.1-0.9 0.6-1.9 0.8-2.9 0.8z"/><path fill-rule="evenodd" class="c" d="m250 372c-107.2 0-193.9-5.1-193.9-11.3 0-6.3 86.7-11.3 193.9-11.3 107.2 0 193.9 5 193.9 11.3 0 6.2-86.7 11.3-193.9 11.3z"/><path class="f" d="m363.4 90.8h-32.5l-23 263.3h32.6c2.2-0.1 4.5-0.5 6.6-1.4 2.1-0.8 4-2 5.7-3.6 1.6-1.5 3-3.3 4-5.3 1-2.1 1.7-4.3 1.9-6.5l20.1-229.7c0.2-2.1 0-4.3-0.7-6.3-0.6-2.1-1.7-4-3.2-5.5-1.4-1.6-3.2-2.9-5.2-3.7-2-0.9-4.1-1.3-6.2-1.3z"/><path class="f" d="m356.8 90.8h-110.2c-2.3 0.1-4.5 0.5-6.6 1.4-2.1 0.8-4 2-5.7 3.6-1.7 1.5-3.1 3.3-4.1 5.3-1 2.1-1.6 4.3-1.9 6.5l-20.1 229.7c-0.2 2.1 0 4.3 0.7 6.3 0.7 2.1 1.8 3.9 3.2 5.5 1.5 1.6 3.2 2.9 5.2 3.7 2 0.9 4.1 1.3 6.3 1.3h110.2c2.2-0.1 4.5-0.5 6.6-1.4 2.1-0.8 4-2 5.7-3.6 1.6-1.5 3-3.3 4-5.4 1-2 1.7-4.2 1.9-6.4l20.1-229.7c0.2-2.1 0-4.3-0.7-6.3-0.6-2.1-1.7-3.9-3.2-5.5-1.4-1.6-3.2-2.9-5.1-3.7-2-0.9-4.1-1.3-6.3-1.3z"/><path class="g" d="m356.8 90.8h-110.2c-2.3 0.1-4.5 0.5-6.6 1.4-2.1 0.8-4 2-5.7 3.6-1.7 1.5-3.1 3.3-4.1 5.3-1 2.1-1.6 4.3-1.9 6.5l-20.1 229.7c-0.2 2.1 0 4.3 0.7 6.3 0.7 2.1 1.8 3.9 3.2 5.5 1.5 1.6 3.2 2.9 5.2 3.7 2 0.9 4.1 1.3 6.3 1.3h110.2c2.2-0.1 4.5-0.5 6.6-1.4 2.1-0.8 4-2 5.7-3.6 1.6-1.5 3-3.3 4-5.4 1-2 1.7-4.2 1.9-6.4l20.1-229.7c0.2-2.1 0-4.3-0.7-6.3-0.6-2.1-1.7-3.9-3.2-5.5-1.4-1.6-3.2-2.9-5.1-3.7-2-0.9-4.1-1.3-6.3-1.3z"/><path class="h" d="m356.3 96.2h-29q-0.7 0-1.3 0.2-0.6 0.2-1.1 0.6-0.6 0.3-1 0.9-0.4 0.5-0.6 1.1-0.9 2.2-2.4 4.1-1.4 1.8-3.4 3.2-1.9 1.4-4.2 2.1-2.3 0.8-4.7 0.8h-17.1c-1.5 0-3-0.2-4.4-0.7-1.4-0.4-2.7-1.2-3.9-2.1-1.1-0.9-2.1-2-2.9-3.3-0.8-1.3-1.3-2.6-1.6-4.1q-0.2-0.6-0.5-1.1-0.3-0.5-0.8-0.9-0.5-0.4-1-0.6-0.6-0.2-1.2-0.2h-29.1c-1.5 0.1-3 0.4-4.5 0.9-1.4 0.6-2.7 1.4-3.8 2.5-1.2 1-2.1 2.3-2.8 3.6-0.7 1.4-1.1 2.9-1.3 4.4l-20.1 229.7c-0.1 1.5 0 2.9 0.5 4.3 0.4 1.4 1.2 2.7 2.2 3.8 0.9 1.1 2.1 1.9 3.5 2.5 1.3 0.6 2.8 0.9 4.2 0.8h110.2c1.6 0 3.1-0.3 4.5-0.9 1.5-0.6 2.8-1.4 3.9-2.4 1.2-1.1 2.1-2.3 2.8-3.7 0.7-1.4 1.1-2.9 1.3-4.4l20-229.6c0.2-1.5 0.1-3-0.4-4.4-0.4-1.4-1.2-2.6-2.2-3.7-1-1.1-2.2-2-3.5-2.5-1.3-0.6-2.8-0.9-4.3-0.9z"/><path class="i" d="m328.9 221h-77.1q-0.8 0-1.6-0.3-0.7-0.3-1.3-0.9-0.5-0.6-0.8-1.4-0.2-0.7-0.1-1.5l0.4-4.5q0.1-0.8 0.4-1.6 0.4-0.7 1-1.3 0.7-0.6 1.4-0.9 0.8-0.3 1.7-0.3h77.1q0.8 0 1.5 0.3 0.8 0.3 1.3 0.9 0.6 0.6 0.8 1.4 0.3 0.7 0.2 1.5l-0.4 4.5q-0.1 0.8-0.5 1.6-0.4 0.7-1 1.3-0.6 0.6-1.4 0.9-0.8 0.3-1.6 0.3z"/><path class="i" d="m327.2 240h-77.1q-0.8 0-1.6-0.3-0.7-0.3-1.2-0.9-0.6-0.6-0.8-1.4-0.3-0.7-0.2-1.5l0.4-4.5q0.1-0.8 0.5-1.6 0.3-0.7 1-1.3 0.6-0.6 1.4-0.9 0.8-0.3 1.6-0.3h77.1q0.8 0 1.6 0.3 0.7 0.3 1.3 0.9 0.5 0.6 0.7 1.4 0.3 0.7 0.2 1.5l-0.4 4.5q-0.1 0.8-0.4 1.6-0.4 0.7-1 1.3-0.7 0.6-1.5 0.9-0.7 0.3-1.6 0.3z"/><path class="j" d="m305.4 100.5q0 0.9-0.5 1.8-0.4 0.8-1.1 1.5-0.7 0.6-1.5 0.9-0.9 0.4-1.8 0.4-0.9 0-1.8-0.3-0.8-0.4-1.4-1-0.6-0.7-0.9-1.6-0.2-0.8-0.1-1.7 0.1-0.9 0.5-1.8 0.4-0.8 1.1-1.4 0.7-0.7 1.6-1 0.8-0.4 1.8-0.4 0.9 0 1.7 0.4 0.8 0.3 1.4 1 0.6 0.6 0.9 1.5 0.2 0.8 0.2 1.7z"/><path class="j" d="m303.4 100.5q-0.1 0.5-0.3 1-0.2 0.4-0.6 0.8-0.4 0.3-0.9 0.5-0.4 0.2-1 0.2-0.4 0-0.9-0.2-0.4-0.2-0.8-0.5-0.3-0.4-0.5-0.8-0.1-0.5-0.1-1 0.1-0.5 0.3-1 0.3-0.4 0.6-0.8 0.4-0.3 0.9-0.5 0.5-0.2 1-0.2 0.5 0 0.9 0.2 0.5 0.2 0.8 0.5 0.3 0.4 0.5 0.9 0.1 0.4 0.1 0.9z"/><g style="opacity:.8"><path class="i" d="m342.8 108.2q-0.3 0-0.5-0.1-0.3-0.1-0.4-0.3-0.2-0.2-0.3-0.5-0.1-0.2-0.1-0.5l0.3-2.4q0-0.3 0.1-0.6 0.1-0.2 0.3-0.4 0.2-0.2 0.5-0.3 0.2-0.1 0.5-0.1 0.3 0 0.5 0.1 0.3 0.1 0.4 0.3 0.2 0.2 0.3 0.5 0.1 0.2 0 0.5l-0.2 2.4q0 0.3-0.1 0.5-0.1 0.3-0.3 0.5-0.2 0.2-0.5 0.3-0.3 0.1-0.5 0.1z"/><path class="i" d="m353.5 108.2q-0.2 0-0.5-0.1-0.2-0.1-0.4-0.3-0.2-0.2-0.2-0.5-0.1-0.2-0.1-0.5l0.5-5.8q0-0.2 0.2-0.5 0.1-0.2 0.3-0.4 0.2-0.2 0.4-0.3 0.3-0.1 0.6-0.1 0.2 0 0.5 0.1 0.2 0.1 0.4 0.3 0.2 0.2 0.2 0.4 0.1 0.3 0.1 0.6l-0.5 5.7q0 0.3-0.2 0.5-0.1 0.3-0.3 0.5-0.2 0.2-0.4 0.3-0.3 0.1-0.6 0.1z"/><path class="i" d="m348.1 108.2q-0.2 0-0.5-0.1-0.2-0.1-0.4-0.3-0.1-0.2-0.2-0.5-0.1-0.2-0.1-0.5l0.4-4.1q0-0.3 0.1-0.5 0.2-0.3 0.4-0.4 0.2-0.2 0.4-0.3 0.3-0.1 0.5-0.1 0.3 0 0.6 0.1 0.2 0.1 0.4 0.3 0.1 0.2 0.2 0.4 0.1 0.3 0.1 0.5l-0.4 4.1q0 0.3-0.1 0.5-0.2 0.3-0.4 0.5-0.2 0.2-0.4 0.3-0.3 0.1-0.6 0.1z"/></g><g style="opacity:.8"><path class="i" d="m250.6 108.2h-6.7q-0.2 0-0.3-0.1-0.1 0-0.2-0.2-0.1-0.1-0.2-0.2 0-0.1 0-0.3l0.3-3.6q0-0.2 0.1-0.3 0.1-0.2 0.2-0.3 0.1-0.1 0.2-0.1 0.2-0.1 0.3-0.1h6.8q0.1 0 0.3 0.1 0.1 0 0.2 0.1 0.1 0.2 0.2 0.3 0 0.1 0 0.3l-0.3 3.6q-0.1 0.2-0.1 0.3-0.1 0.1-0.2 0.2-0.1 0.2-0.3 0.2-0.1 0.1-0.3 0.1z"/><path class="i" d="m253.8 107.2q-0.2 0-0.3-0.1-0.2 0-0.3-0.1-0.1-0.2-0.1-0.3 0-0.1 0-0.3l0.1-1.6q0-0.2 0.1-0.3 0.1-0.2 0.2-0.3 0.1-0.1 0.2-0.1 0.2-0.1 0.4-0.1 0.1 0 0.2 0.1 0.2 0 0.3 0.1 0.1 0.1 0.1 0.3 0.1 0.1 0 0.3l-0.1 1.6q0 0.2-0.1 0.3-0.1 0.2-0.2 0.3-0.1 0.1-0.2 0.1-0.2 0.1-0.3 0.1z"/></g><path fill-rule="evenodd" class="i" d="m316.2 191.9c-13.5 12.9-33.9 13.4-45.8 1-11.8-12.3-10.4-32.7 3-45.6 13.5-12.9 34-13.4 45.8-1 11.8 12.3 10.4 32.7-3 45.6z"/><path class="f" d="m294.9 168.4c-8.5 0-15.6 3.2-16.2 10.2l-0.7 7.8h30.7l0.7-7.8c0.6-7-6-10.2-14.5-10.2z"/><path class="f" d="m295.2 165.2c3.9 0 5.8-3.2 6.1-7.2 0.3-3.9-0.9-7.1-4.8-7.1-4 0-5.8 3.2-6.2 7.1-0.3 4 1 7.2 4.9 7.2z"/><path class="f" d="m325.4 214.4c-2.1 0-3.9 0.8-4 2.5l-0.2 1.9h7.6l0.2-1.9c0.1-1.7-1.5-2.5-3.6-2.5z"/><path class="f" d="m325.4 213.6c1 0 1.5-0.8 1.5-1.8 0.1-0.9-0.2-1.7-1.2-1.7-0.9 0-1.4 0.8-1.5 1.7-0.1 1 0.3 1.8 1.2 1.8z"/><path class="f" d="m302 259h-30q-1.2 0-2.4-0.5-1.1-0.5-1.9-1.4-0.9-0.9-1.3-2-0.3-1.2-0.2-2.5 0.1-1.2 0.7-2.4 0.6-1.2 1.6-2 0.9-0.9 2.1-1.4 1.2-0.5 2.5-0.5h30q1.2 0 2.4 0.5 1.1 0.5 1.9 1.4 0.9 0.9 1.3 2.1 0.3 1.1 0.2 2.3-0.1 1.3-0.7 2.5-0.6 1.2-1.5 2-1 0.9-2.2 1.4-1.2 0.5-2.5 0.5z"/><path class="f" d="m298.4 329.8h-32.1q-1.3 0.1-2.6-0.5-1.2-0.5-2-1.4-0.9-1-1.3-2.2-0.4-1.3-0.3-2.6l2.1-23.4q0.1-1.4 0.7-2.6 0.7-1.2 1.7-2.2 1-0.9 2.2-1.4 1.3-0.5 2.7-0.5h32.1q1.3 0 2.5 0.5 1.2 0.5 2.1 1.5 0.9 0.9 1.3 2.2 0.4 1.2 0.2 2.5l-2 23.4q-0.2 1.4-0.8 2.6-0.6 1.2-1.6 2.1-1 1-2.3 1.5-1.3 0.5-2.6 0.5z"/><g style="opacity:.6"><path class="i" d="m288.5 305.6q0-0.8-0.2-1.5-0.2-0.8-0.8-1.3-0.5-0.6-1.2-0.9-0.7-0.3-1.5-0.3-0.8 0-1.6 0.3-0.8 0.3-1.4 0.9-0.6 0.5-0.9 1.3-0.4 0.7-0.5 1.5 0 0.5 0 0.9 0.1 0.5 0.3 0.9 0.1 0.4 0.4 0.8 0.3 0.3 0.7 0.6l-0.7 8.1q-0.1 0.5 0 0.9 0.2 0.5 0.5 0.8 0.3 0.3 0.7 0.5 0.5 0.2 0.9 0.2 0.5 0 1-0.2 0.4-0.2 0.8-0.5 0.4-0.3 0.6-0.8 0.2-0.4 0.2-0.9l0.8-8.1q0.4-0.2 0.7-0.6 0.3-0.4 0.6-0.8 0.2-0.4 0.4-0.9 0.1-0.4 0.2-0.9z"/></g><path class="f" d="m301.9 297.9h-4.2l1-11.6c0.2-1.6 0-3.3-0.5-4.8-0.5-1.5-1.3-3-2.4-4.2-1.1-1.1-2.4-2.1-3.9-2.7-1.5-0.7-3.1-1-4.7-1-1.7 0.1-3.4 0.4-5 1-1.5 0.7-3 1.6-4.3 2.7-1.2 1.2-2.2 2.6-3 4.1-0.8 1.5-1.3 3.2-1.4 4.9l-1 11.6h-4.2l1-11.6c0.3-2.3 0.9-4.5 1.9-6.5 1-2 2.4-3.8 4.1-5.4 1.6-1.5 3.6-2.7 5.7-3.6 2.1-0.8 4.3-1.3 6.6-1.3 2.1 0 4.2 0.4 6.2 1.2 2 0.9 3.8 2.1 5.2 3.7 1.4 1.6 2.5 3.5 3.2 5.5 0.7 2.1 0.9 4.2 0.7 6.4z"/><path class="f" d="m325.9 232.1l0.1-1.1q0-0.4-0.1-0.8-0.1-0.4-0.4-0.7-0.2-0.2-0.6-0.4-0.4-0.2-0.8-0.2-0.4 0-0.8 0.2-0.4 0.2-0.7 0.4-0.3 0.3-0.5 0.7-0.2 0.4-0.2 0.8l-0.1 1.1q-0.2 0-0.3 0.1-0.2 0-0.3 0.2-0.1 0.1-0.2 0.2-0.1 0.2-0.1 0.3l-0.3 3q0 0.2 0.1 0.4 0 0.1 0.1 0.2 0.1 0.1 0.3 0.2 0.1 0.1 0.3 0.1h4.1q0.2 0 0.3-0.1 0.2-0.1 0.3-0.2 0.1-0.1 0.2-0.2 0.1-0.2 0.1-0.4l0.3-3q0-0.1-0.1-0.3 0-0.1-0.2-0.2-0.1-0.2-0.2-0.2-0.2-0.1-0.3-0.1zm-1.9-2.6q0.3 0 0.6 0.1 0.3 0.1 0.5 0.3 0.2 0.2 0.3 0.5 0 0.3 0 0.6l-0.1 1.1h-3.1l0.1-1.1q0.1-0.3 0.2-0.6 0.1-0.3 0.4-0.5 0.2-0.2 0.5-0.3 0.3-0.1 0.6-0.1z"/><path class="k" d="m263.9 233.3l-1.5-0.3q-0.1 0-0.1 0 0-0.1-0.1-0.1 0-0.1 0-0.1 0-0.1 0-0.2l0.6-1.4q0.1-0.1 0-0.2 0-0.1-0.1-0.1-0.1-0.1-0.2-0.1-0.1 0.1-0.1 0.1l-1.1 1.1q-0.1 0.1-0.1 0.1-0.1 0.1-0.2 0.1 0 0-0.1-0.1 0 0-0.1-0.1l-0.9-1.1c-0.2-0.2-0.6 0-0.5 0.3l0.4 1.4q0 0.1 0 0.2-0.1 0-0.1 0.1 0 0-0.1 0.1 0 0-0.1 0l-1.5 0.3c-0.3 0.1-0.3 0.5 0 0.6l1.4 0.3q0.1 0 0.1 0 0.1 0.1 0.1 0.1 0 0.1 0 0.2 0 0 0 0.1l-0.6 1.4q0 0.1 0 0.2 0 0.1 0.1 0.1 0.1 0.1 0.2 0.1 0.1 0 0.2-0.1l1.1-1.1q0-0.1 0.1-0.1 0 0 0.1 0 0 0 0.1 0 0.1 0 0.1 0.1l0.9 1.1c0.2 0.2 0.6 0 0.5-0.3l-0.3-1.4q-0.1-0.1 0-0.1 0-0.1 0-0.2 0 0 0.1-0.1 0.1 0 0.1 0l1.5-0.3c0.3-0.1 0.4-0.5 0.1-0.6z"/><path class="k" d="m273.3 233.3l-1.4-0.3q-0.1 0-0.1 0-0.1-0.1-0.1-0.1 0-0.1 0-0.1 0-0.1 0-0.2l0.6-1.4q0-0.1 0-0.2 0-0.1-0.1-0.1-0.1-0.1-0.2-0.1-0.1 0.1-0.2 0.1l-1.1 1.1q0 0.1-0.1 0.1 0 0.1-0.1 0.1-0.1 0-0.1-0.1-0.1 0-0.1-0.1l-0.9-1.1c-0.2-0.2-0.6 0-0.5 0.3l0.3 1.4q0 0.1 0 0.2 0 0 0 0.1-0.1 0-0.1 0.1-0.1 0-0.1 0l-1.5 0.3c-0.3 0.1-0.4 0.5-0.1 0.6l1.5 0.3q0 0 0.1 0 0 0.1 0 0.1 0.1 0.1 0.1 0.2 0 0 0 0.1l-0.6 1.4q-0.1 0.1-0.1 0.2 0.1 0.1 0.2 0.1 0 0.1 0.2 0.1 0.1 0 0.1-0.1l1.1-1.1q0.1-0.1 0.1-0.1 0.1 0 0.1 0 0.1 0 0.2 0 0 0 0 0.1l0.9 1.1c0.2 0.2 0.6 0 0.6-0.3l-0.4-1.4q0-0.1 0-0.2 0 0 0.1-0.1 0 0 0.1-0.1 0 0 0.1 0l1.5-0.3c0.3-0.1 0.3-0.5 0-0.6z"/><path class="k" d="m282.8 233.3l-1.5-0.3q0 0-0.1 0 0-0.1-0.1-0.1 0-0.1 0-0.1 0-0.1 0-0.2l0.6-1.4q0.1-0.1 0.1-0.2 0-0.1-0.1-0.2-0.1 0-0.3 0-0.1 0-0.1 0.1l-1.1 1.1q-0.1 0.1-0.1 0.1-0.1 0.1-0.1 0.1-0.1 0-0.2-0.1 0 0-0.1-0.1l-0.8-1.1c-0.2-0.2-0.7 0-0.6 0.3l0.4 1.4q0 0.1 0 0.2 0 0-0.1 0.1 0 0-0.1 0.1 0 0-0.1 0l-1.5 0.3c-0.3 0.1-0.3 0.5 0 0.6l1.4 0.3q0.1 0 0.1 0 0.1 0.1 0.1 0.1 0 0.1 0 0.2 0 0 0 0.1l-0.6 1.4q0 0.1 0 0.2 0 0.1 0.1 0.2 0.1 0 0.2 0 0.1 0 0.2-0.1l1.1-1.1q0-0.1 0.1-0.1 0 0 0.1 0 0.1 0 0.1 0 0.1 0 0.1 0.1l0.9 1.1c0.2 0.2 0.6 0 0.5-0.3l-0.3-1.4q0-0.1 0-0.2 0 0 0-0.1 0.1 0 0.1-0.1 0.1 0 0.1 0l1.5-0.3c0.3-0.1 0.4-0.5 0.1-0.6z"/><path class="k" d="m292.2 233.3l-1.4-0.3q-0.1 0-0.1 0-0.1-0.1-0.1-0.1 0-0.1 0-0.1 0-0.1 0-0.2l0.6-1.4q0-0.1 0-0.2 0-0.1-0.1-0.1-0.1-0.1-0.2-0.1-0.1 0.1-0.2 0.1l-1 1.1q-0.1 0.1-0.1 0.1-0.1 0.1-0.2 0.1 0 0-0.1-0.1-0.1 0-0.1-0.1l-0.9-1.1c-0.2-0.2-0.6 0-0.5 0.3l0.3 1.4q0.1 0.1 0 0.2 0 0 0 0.1 0 0-0.1 0.1 0 0-0.1 0l-1.5 0.3c-0.3 0.1-0.4 0.5 0 0.6l1.4 0.3q0.1 0 0.2 0 0 0.1 0 0.1 0.1 0.1 0.1 0.2-0.1 0-0.1 0.1l-0.6 1.4q0 0.1 0 0.2 0.1 0.1 0.1 0.1 0.1 0.1 0.2 0.1 0.1 0 0.2-0.1l1.1-1.1q0-0.1 0.1-0.1 0 0 0.1 0 0.1 0 0.1 0 0.1 0 0.1 0.1l0.9 1.1c0.2 0.2 0.6 0 0.5-0.3l-0.3-1.4q0-0.1 0-0.2 0 0 0-0.1 0.1 0 0.1-0.1 0.1 0 0.2 0l1.4-0.3c0.3-0.1 0.4-0.5 0-0.6z"/><path class="k" d="m301.7 233.3l-1.4-0.3q-0.1 0-0.2 0 0-0.1 0-0.1-0.1-0.1-0.1-0.1 0-0.1 0.1-0.2l0.6-1.4q0-0.1 0-0.2-0.1-0.1-0.1-0.1-0.1-0.1-0.2-0.1-0.1 0.1-0.2 0.1l-1.1 1.1q0 0.1-0.1 0.1 0 0.1-0.1 0.1-0.1 0-0.1-0.1-0.1 0-0.1-0.1l-0.9-1.1c-0.2-0.2-0.6 0-0.5 0.3l0.3 1.4q0 0.1 0 0.2 0 0 0 0.1-0.1 0-0.1 0.1-0.1 0-0.1 0l-1.5 0.3c-0.4 0.1-0.4 0.5-0.1 0.6l1.5 0.3q0 0 0.1 0 0 0.1 0 0.1 0.1 0.1 0.1 0.2 0 0-0.1 0.1l-0.6 1.4q0 0.1 0 0.2 0.1 0.1 0.2 0.1 0 0.1 0.1 0.1 0.1 0 0.2-0.1l1.1-1.1q0-0.1 0.1-0.1 0.1 0 0.1 0 0.1 0 0.1 0 0.1 0 0.1 0.1l0.9 1.1c0.2 0.2 0.6 0 0.6-0.3l-0.4-1.4q0-0.1 0-0.2 0 0 0.1-0.1 0 0 0-0.1 0.1 0 0.2 0l1.4-0.3c0.4-0.1 0.4-0.5 0.1-0.6z"/><path class="k" d="m311.2 233.3l-1.5-0.3q0 0-0.1 0 0-0.1-0.1-0.1 0-0.1 0-0.1 0-0.1 0-0.2l0.6-1.4q0.1-0.1 0.1-0.2-0.1-0.1-0.2-0.2-0.1 0-0.2 0-0.1 0-0.1 0.1l-1.1 1.1q-0.1 0.1-0.1 0.1-0.1 0.1-0.1 0.1-0.1 0-0.2-0.1 0 0-0.1-0.1l-0.9-1.1c-0.1-0.2-0.6 0-0.5 0.3l0.4 1.4q0 0.1 0 0.2 0 0-0.1 0.1 0 0-0.1 0.1 0 0-0.1 0l-1.5 0.3c-0.3 0.1-0.3 0.5 0 0.6l1.4 0.3q0.1 0 0.1 0 0.1 0.1 0.1 0.1 0 0.1 0 0.2 0 0 0 0.1l-0.6 1.4q-0.1 0.1 0 0.2 0 0.1 0.1 0.2 0.1 0 0.2 0 0.1 0 0.2-0.1l1.1-1.1q0-0.1 0.1-0.1 0 0 0.1 0 0 0 0.1 0 0.1 0 0.1 0.1l0.9 1.1q0.1 0.1 0.2 0.1 0.1 0 0.2-0.1 0.1 0 0.1-0.1 0-0.1 0-0.2l-0.3-1.4q0-0.1 0-0.2 0 0 0-0.1 0.1 0 0.1-0.1 0.1 0 0.1 0l1.5-0.3c0.3-0.1 0.4-0.5 0.1-0.6z"/><path class="k" d="m288.4 212.6h-17.8q-0.4 0-0.8 0.2-0.4 0.1-0.7 0.4-0.3 0.3-0.5 0.6-0.1 0.4-0.2 0.8 0 0.4 0.1 0.8 0.1 0.3 0.4 0.6 0.2 0.3 0.6 0.5 0.4 0.1 0.7 0.1h17.8q0.4 0 0.8-0.1 0.4-0.2 0.7-0.5 0.3-0.3 0.5-0.6 0.1-0.4 0.2-0.8 0-0.4-0.1-0.7-0.1-0.4-0.4-0.7-0.2-0.3-0.6-0.4-0.4-0.2-0.7-0.2z"/><path class="k" d="m306.4 212.6h-10.3q-0.4 0-0.8 0.2-0.4 0.1-0.7 0.4-0.3 0.3-0.5 0.6-0.1 0.4-0.2 0.8 0 0.4 0.1 0.8 0.1 0.3 0.4 0.6 0.2 0.3 0.6 0.5 0.3 0.1 0.7 0.1h10.3q0.4 0 0.8-0.1 0.4-0.2 0.7-0.5 0.3-0.3 0.4-0.6 0.2-0.4 0.3-0.8 0-0.4-0.1-0.7-0.1-0.4-0.4-0.7-0.2-0.3-0.6-0.4-0.3-0.2-0.7-0.2z"/><path class="k" d="m320 303.3q-2.3 0.9-4.6 2-2.2 1.1-4.3 2.5-2.1 1.4-4 3-2 1.6-3.7 3.5-1-0.9-2.2-1.5-1.2-0.7-2.4-1.2-1.2-0.5-2.5-0.8-1.3-0.4-2.6-0.5l-0.5-0.1-0.2 2.4 0.3 0.1q1.4 0.5 2.8 1.3 1.3 0.7 2.5 1.7 1.2 1 2.2 2.1 1 1.2 1.8 2.5l0.3 0.6 0.4-0.6q1.6-2.5 3.4-4.7 1.9-2.3 4-4.2 2.2-2 4.6-3.7 2.3-1.6 4.9-3l0.3-0.1 0.1-1.5z"/><path class="l" d="m230.6 106.4q-0.4 0.8-0.8 1.7-0.4 0.9-0.7 1.8-0.3 0.9-0.5 1.8-0.2 1-0.3 1.9l-14.9 170.2h46.1l9.3-35.5-3.1-35.5 9.3-35.4-3-35.5 9.3-35.5z"/><path fill-rule="evenodd" class="f" d="m267.9 131.9l9.3-35.5h-116.5l-9.3 35.5 3.1 35.5-9.3 35.5 3.1 35.5-9.3 35.4h116.5l9.3-35.4-3.1-35.5 9.3-35.5-3-35.5z"/><path fill-rule="evenodd" class="m" d="m267.9 131.9l9.3-35.5h-116.5l-9.3 35.5 3.1 35.5-9.3 35.5 3.1 35.5-9.3 35.4h116.5l9.3-35.4-3.1-35.5 9.3-35.5-3-35.5z"/><path fill-rule="evenodd" class="n" d="m267.9 131.9h-116.5l9.3-35.5h116.5l-9.2 35.5z"/><path fill-rule="evenodd" class="n" d="m261.7 202.9h-116.5l9.3-35.5h116.5l-9.3 35.5z"/><path fill-rule="evenodd" class="n" d="m255.5 273.8h-116.5l9.3-35.4h116.5l-9.3 35.4z"/><path class="l" d="m252.4 146.7q-0.5 0.1-0.9 0.2-0.5 0.1-1 0.2-0.4 0-0.9 0.1-0.5 0-0.9 0-0.7 0-1.3 0-0.6-0.1-1.2-0.2-0.6-0.1-1.2-0.3-0.6-0.2-1.2-0.5-0.1-0.1-0.2-0.1-0.1-0.1-0.2-0.1-0.2 0-0.3 0-0.1 0-0.2-0.1-0.1 0.1-0.2 0.1-0.1 0-0.3 0-0.1 0-0.2 0.1-0.1 0-0.2 0.1-0.2 0.1-0.4 0.1-0.1 0.1-0.3 0.2-0.2 0.1-0.4 0.1-0.2 0.1-0.3 0.1-0.5 0.2-0.9 0.2-0.4 0.1-0.8 0.2-0.5 0-0.9 0-0.4 0.1-0.9 0.1-0.5 0-1 0-0.3-0.1-0.6-0.1-0.4 0-0.7-0.1-0.3 0-0.7-0.1-0.3-0.1-0.6-0.2-0.1 0-0.1 0-0.1 0-0.1 0-0.1-0.1-0.1-0.1-0.1 0-0.1 0-0.3 0-0.7 0.1-0.3 0.1-0.5 0.3-0.3 0.3-0.4 0.6-0.1 0.3-0.1 0.6v1.1h-45.4q-1.3 0-2.4 0.5-1.2 0.5-2.1 1.4-0.9 0.9-1.4 2-0.4 1.2-0.4 2.5v6.3q0 1.3 0.4 2.5 0.5 1.1 1.4 2 0.9 0.9 2.1 1.4 1.1 0.5 2.4 0.5h51.5 0.4q0.8 0.7 1.7 1.4c0.6 0.5 1.5 1.1 2.3 1.7q0.2 0.1 0.5 0.2 0.2 0.1 0.5 0.1 0.2 0 0.5-0.1 0.2-0.1 0.4-0.2c6.5-4.7 10.7-8 10.7-16.9v-6.4q0-0.3-0.2-0.7-0.2-0.3-0.5-0.6-0.3-0.2-0.7-0.3-0.4 0-0.7 0.1z"/><path fill-rule="evenodd" class="f" d="m185 145.8h51.5c3.5 0 6.4 2.8 6.4 6.3v6.4c0 3.5-2.9 6.4-6.4 6.4h-51.5c-3.5 0-6.3-2.9-6.3-6.4v-6.4c0-3.5 2.8-6.3 6.3-6.3z"/><path class="f" d="m247.7 143.7q-0.6 0-1.3 0-0.6-0.1-1.2-0.2-0.6-0.1-1.2-0.3-0.6-0.2-1.2-0.5-0.2-0.1-0.4-0.2-0.3-0.1-0.5-0.1-0.2 0-0.5 0.1-0.2 0.1-0.4 0.2-0.6 0.3-1.2 0.5-0.6 0.2-1.2 0.3-0.6 0.1-1.2 0.2-0.7 0-1.3 0-0.5 0-0.9 0-0.5-0.1-1-0.1-0.4-0.1-0.9-0.2-0.4-0.1-0.9-0.2-0.3-0.1-0.7-0.1-0.4 0.1-0.7 0.3-0.3 0.2-0.5 0.6-0.2 0.3-0.2 0.7v6.4c0 8.9 4.2 12.2 10.7 16.9q0.2 0.1 0.4 0.2 0.2 0.1 0.5 0.1 0.3 0 0.5-0.1 0.2-0.1 0.4-0.2c6.5-4.7 10.7-8 10.7-16.9v-6.4q0-0.4-0.2-0.7-0.2-0.4-0.5-0.6-0.3-0.2-0.7-0.3-0.4 0-0.7 0.1-0.5 0.1-0.9 0.2-0.5 0.1-1 0.2-0.4 0-0.9 0.1-0.4 0-0.9 0z"/><path class="g" d="m247.7 143.7q-0.6 0-1.3 0-0.6-0.1-1.2-0.2-0.6-0.1-1.2-0.3-0.6-0.2-1.2-0.5-0.2-0.1-0.4-0.2-0.3-0.1-0.5-0.1-0.2 0-0.5 0.1-0.2 0.1-0.4 0.2-0.6 0.3-1.2 0.5-0.6 0.2-1.2 0.3-0.6 0.1-1.2 0.2-0.7 0-1.3 0-0.5 0-0.9 0-0.5-0.1-1-0.1-0.4-0.1-0.9-0.2-0.4-0.1-0.9-0.2-0.3-0.1-0.7-0.1-0.4 0.1-0.7 0.3-0.3 0.2-0.5 0.6-0.2 0.3-0.2 0.7v6.4c0 8.9 4.2 12.2 10.7 16.9q0.2 0.1 0.4 0.2 0.2 0.1 0.5 0.1 0.3 0 0.5-0.1 0.2-0.1 0.4-0.2c6.5-4.7 10.7-8 10.7-16.9v-6.4q0-0.4-0.2-0.7-0.2-0.4-0.5-0.6-0.3-0.2-0.7-0.3-0.4 0-0.7 0.1-0.5 0.1-0.9 0.2-0.5 0.1-1 0.2-0.4 0-0.9 0.1-0.4 0-0.9 0z"/><path class="o" d="m241 142.7q-0.6 0.2-1.2 0.4-0.6 0.2-1.2 0.4-0.6 0.1-1.2 0.1-0.7 0.1-1.3 0.1-0.5 0-0.9-0.1-0.5 0-1-0.1-0.4 0-0.9-0.1-0.4-0.1-0.9-0.2-0.3-0.2-0.7-0.1-0.4 0.1-0.7 0.3-0.3 0.2-0.5 0.5-0.2 0.4-0.2 0.8v6.4c0 8.9 4.2 12.1 10.6 16.8q0.2 0.1 0.3 0.2 0.1 0 0.2 0.1 0.2 0 0.3 0 0.1 0 0.2 0v-25.8q-0.1 0-0.2 0-0.1 0-0.2 0.1-0.2 0-0.3 0-0.1 0.1-0.2 0.2z"/><path class="k" d="m251.2 149.4q-1.5 0.5-2.8 1.3-1.4 0.7-2.7 1.6-1.3 0.9-2.4 2-1.2 1-2.2 2.2-0.7-0.5-1.5-1-0.8-0.4-1.6-0.7-0.9-0.4-1.7-0.6-0.9-0.2-1.8-0.3h-0.3v1.5l0.2 0.1q1 0.3 1.9 0.8 0.9 0.5 1.7 1.2 0.9 0.6 1.6 1.4 0.7 0.7 1.3 1.6l0.2 0.3 0.2-0.4q0.9-1.6 2-3 1.1-1.5 2.3-2.7 1.3-1.3 2.8-2.4 1.4-1.1 3-1.9l0.2-0.1v-1z"/><path class="f" d="m275.1 106.4h-4.4q-0.8 0-1.6-0.4-0.8-0.3-1.4-0.9-0.6-0.7-0.8-1.5-0.3-0.8-0.2-1.7l0.4-4.4q0.1-0.9 0.5-1.7 0.4-0.8 1-1.4 0.7-0.6 1.5-1 0.9-0.3 1.8-0.3h4.4q0.9-0.1 1.7 0.3 0.8 0.3 1.3 1 0.6 0.6 0.9 1.4 0.3 0.8 0.2 1.7l-0.4 4.4q-0.1 0.9-0.5 1.7-0.4 0.8-1.1 1.4-0.7 0.7-1.5 1-0.8 0.3-1.8 0.4z"/><path fill-rule="evenodd" class="i" d="m277 97.5l-1-1.1-2.4 2.3-2-2.3-1.2 1.1 2.1 2.2-2.4 2.2 0.9 1.1 2.4-2.2 2.1 2.2 1.1-1.1-2-2.2 2.4-2.2z"/><path class="p" d="m176.4 144.5c2.5 2.8 5 5.7 7.4 8.6 2.4 2.9 4.8 5.9 7.1 8.8 0.1 0.2 0.1 0.1 0.1 0.2 0 0 0 0 0 0q0 0 0 0 0 0.1 0 0.1 0 0 0 0 0.1 0 0.1 0 0 0.1 0.1 0.2 0.1 0.1 0.2 0.1 0.1 0.1 0.2 0.1 0.1 0.1 0.2 0.1 0 0 0.1 0 0 0 0.1 0 0 0 0.1 0 0 0 0 0 0.1 0 0.1 0 0 0 0 0 0.1 0 0.1 0 0 0 0 0h0.1c0.1 0 0 0 0.2-0.1l2.5-1.3c3.3-1.8 6.7-3.6 10.2-5.1l3 3.6c-2.9 2.6-5.8 5.8-8.8 8.2l-2.2 1.8q-0.1 0-0.1 0.1-0.1 0-0.1 0.1-0.1 0-0.1 0-0.1 0.1-0.2 0.1 0 0-0.1 0.1-0.1 0-0.1 0.1-0.1 0-0.2 0.1 0 0-0.1 0-0.1 0.1-0.3 0.2-0.1 0.1-0.2 0.1-0.2 0.1-0.3 0.2-0.2 0-0.3 0.1-0.3 0.1-0.6 0.2-0.3 0.1-0.6 0.2-0.3 0.1-0.6 0.2-0.3 0-0.6 0.1-0.7 0.1-1.3 0.1-0.6 0-1.3-0.1-0.6 0-1.2-0.2-0.6-0.1-1.2-0.3-0.3-0.1-0.6-0.3-0.3-0.1-0.6-0.3-0.3-0.1-0.6-0.3-0.3-0.1-0.5-0.3-0.6-0.4-1-0.8-0.3-0.2-0.5-0.5l-0.4-0.4q-4-4-7.8-8.2c-2.6-2.8-5.1-5.6-7.5-8.5z"/><path class="p" d="m204 158.4l2.3-7.5 6.2 3c0 0-0.9 5.5-5.4 6.5z"/><path fill-rule="evenodd" class="p" d="m208.8 148.8l5.5 1.5-1.8 3.6-6.2-3 2.5-2.1z"/><path class="p" d="m144.1 146.5c-0.7 3.2-1.5 6.4-2.3 9.5q-1.3 4.7-2.8 9.4l-0.4 1.1-0.1 0.6q0 0 0 0.1-0.1 0-0.1 0 0 0.1 0 0.1 0 0 0 0.1-0.1 0.1-0.1 0.2 0 0.1-0.1 0.2 0 0.2 0 0.3 0 0.1 0 0.3 0 0.2 0 0.5 0 0.3 0.1 0.5 0.1 0.3 0.2 0.5 0.1 0.3 0.3 0.5 0 0.1 0.1 0.2 0.1 0.1 0.2 0.2 0.1 0.1 0.1 0.2 0.1 0.1 0.2 0.2l0.8 0.9 1.7 1.8c1 1.2 2.1 2.5 3.1 3.8l-3.4 4c-1.5-0.8-2.9-1.7-4.2-2.6l-2.1-1.4-1-0.7c-0.3-0.2-0.6-0.4-1.2-0.8q-0.7-0.6-1.3-1.4-0.6-0.7-1.1-1.5-0.5-0.9-0.9-1.7-0.3-0.9-0.5-1.9-0.1-0.4-0.2-0.9 0-0.5 0-1-0.1-0.5-0.1-1 0.1-0.5 0.1-1c0-0.3 0.1-0.6 0.2-1l0.1-0.6 0.2-1.2q0.8-4.8 1.8-9.6c0.7-3.1 1.4-6.3 2.3-9.4z"/><path class="p" d="m141.6 177.3l4.2-2.1 1.8 7c0 0-3.3 1.3-5.9-0.3z"/><path fill-rule="evenodd" class="p" d="m151.4 173l0.2 6.4-4.6 3-1.6-7 6-2.4z"/><path class="k" d="m164.9 113.5c0.1 0.5 0.5 0.8 0.8 0.8 0.3-0.1 0.5-0.6 0.4-1.1-0.1-0.4-0.4-0.8-0.8-0.7-0.3 0-0.5 0.5-0.4 1z"/><path class="q" d="m165.3 114.3q0.4 0.5 0.7 1 0.4 0.5 0.8 1 0.4 0.5 0.9 0.9 0.4 0.5 0.9 0.9-0.2 0.2-0.5 0.4-0.3 0.2-0.6 0.3-0.3 0.1-0.6 0.2-0.3 0-0.6 0z"/><path class="k" d="m162.6 111.1q-0.1 0-0.2-0.1-0.1 0-0.1-0.1 0-0.1 0-0.2 0 0 0.1-0.1 0.2-0.3 0.5-0.5 0.3-0.2 0.6-0.3 0.3-0.1 0.7-0.2 0.3 0 0.7 0 0 0 0.1 0 0 0.1 0.1 0.1 0 0.1 0 0.1 0 0.1 0 0.1 0 0.1 0 0.1-0.1 0.1-0.1 0.1 0 0.1-0.1 0.1-0.1 0-0.1 0-0.3 0-0.6 0-0.3 0-0.5 0.1-0.3 0.1-0.5 0.3-0.2 0.2-0.4 0.4 0 0-0.1 0 0 0 0 0.1 0 0-0.1 0 0 0 0 0z"/><path class="p" d="m150.5 120.4c1.1 4.6 2.2 13-1.7 16.1 0 0 1.5 4.6 12 4.6 11.5 0 5.5-3 5.5-3-6.3-1.2-6.1-6.6-5-10.2z"/><path class="k" d="m147.6 137.3c-0.7-1.2-1.5-2.7 0.1-3.2 1.7-0.5 12.7-1.4 16-0.4-1 1.7 0.7 4 0.7 4z"/><path fill-rule="evenodd" class="p" d="m156.7 351.9h7.2l0.7-14.5h-7.2l-0.7 14.5z"/><path fill-rule="evenodd" class="p" d="m110.9 349.9l7.3 0.4 4.5-14.3-7.4-0.4-4.4 14.3z"/><path class="k" d="m118 349.7l-6.9-1.5q-0.1 0-0.2 0-0.1 0-0.1 0.1-0.1 0-0.2 0.1-0.1 0.1-0.1 0.1l-2.4 5.2q-0.1 0.2-0.1 0.4 0 0.2 0.1 0.4 0.1 0.2 0.3 0.3 0.2 0.2 0.4 0.2c2.4 0.5 3.6 0.6 6.6 1.3 1.9 0.4 6.1 1.4 8.6 2 2.6 0.5 3.5-2 2.5-2.4-4.5-2.1-6.4-3.9-7.6-5.6q-0.1-0.1-0.2-0.2-0.1-0.1-0.2-0.1-0.1-0.1-0.2-0.2-0.2 0-0.3-0.1z"/><path class="k" d="m163.5 351.2h-6.8q-0.1 0-0.2 0-0.1 0.1-0.2 0.1 0 0.1-0.1 0.2 0 0 0 0.1l-1.3 5.6q0 0.2 0 0.4 0.1 0.2 0.2 0.4 0.1 0.1 0.3 0.2 0.2 0.1 0.4 0.1c2.5 0 6-0.2 9.2-0.2 3.6 0 6.7 0.2 11 0.2 2.5 0 3.3-2.6 2.2-2.8-4.9-1.1-8.9-1.2-13.2-3.8q-0.1-0.1-0.3-0.2-0.2-0.1-0.4-0.2-0.2 0-0.4-0.1-0.2 0-0.4 0z"/><path class="k" d="m135.7 138.6c-5.4 2.6-6.9 18.3-6.9 18.3l13.5 6.2q0.8-1.4 1.5-2.9 0.6-1.6 1.1-3.2 0.4-1.6 0.7-3.2 0.2-1.7 0.3-3.3c0.2-8.2-4.6-14.5-10.2-11.9z"/><path class="r" d="m143 148.3c-2.4 3.8-2.2 9.6-1.4 14.5l0.6 0.3q0.9-1.4 1.5-2.9 0.7-1.6 1.2-3.2 0.4-1.6 0.7-3.2 0.2-1.7 0.2-3.3c0-0.5 0-1 0-1.5z"/><path class="f" d="m173.3 138.2c0 0 6.7 7.6 0.4 54.2h-33.6c-0.2-5.1 3-30.2-2-54.5q1.4-0.3 2.8-0.5 1.4-0.2 2.8-0.4 1.4-0.2 2.8-0.3 1.5-0.1 2.9-0.2 1.8-0.1 3.5-0.2 1.8 0 3.6 0 1.8 0 3.6 0 1.7 0.1 3.5 0.2 1.3 0.1 2.5 0.3 1.2 0.2 2.4 0.4 1.2 0.2 2.4 0.5 1.2 0.2 2.4 0.5z"/><path class="s" d="m173.3 138.2c0 0 6.7 7.6 0.4 54.2h-33.6c-0.2-5.1 3-30.2-2-54.5q1.4-0.3 2.8-0.5 1.4-0.2 2.8-0.4 1.4-0.2 2.8-0.3 1.5-0.1 2.9-0.2 1.8-0.1 3.5-0.2 1.8 0 3.6 0 1.8 0 3.6 0 1.7 0.1 3.5 0.2 1.3 0.1 2.5 0.3 1.2 0.2 2.4 0.4 1.2 0.2 2.4 0.5 1.2 0.2 2.4 0.5z"/><path class="l" d="m176.2 152.5l-0.1-0.1-6.6-3.6c-0.7 10.3 3.9 16.7 6.6 19.5q0.1-1.9 0.2-3.9 0.1-2 0.1-4 0-2 0-3.9-0.1-2-0.2-4z"/><path fill-rule="evenodd" class="l" d="m164.6 337.4l-0.3 7.5h-7.3l0.4-7.5h7.2z"/><path fill-rule="evenodd" class="l" d="m115.3 335.6l7.4 0.4-2.3 7.4-7.3-0.4 2.2-7.4z"/><path class="p" d="m148.2 115.8c1.6 6 2.3 9.6 6 12.1 5.6 3.7 12.5-0.6 12.7-6.9 0.2-5.8-2.4-14.6-8.9-15.9-1.4-0.2-2.9-0.1-4.3 0.3-1.3 0.5-2.6 1.3-3.6 2.3-0.9 1.1-1.6 2.4-2 3.8-0.3 1.4-0.3 2.9 0.1 4.3z"/><path class="k" d="m161.8 192.4c0 0-7.1 47.9-11 65.9-4.3 19.7-27.3 84.7-27.3 84.7l-11.2-2.4c0 0 14.4-53 18-80.5 1.4-10.7 3.1-28 5.2-42.4 2.1-14 4.7-25.3 4.7-25.3z"/><path class="f" d="m126.2 339.3l-2.1 4-12.6-2.7 1.1-3.8z"/><path class="t" d="m126.2 339.3l-2.1 4-12.6-2.7 1.1-3.8z"/><path class="u" d="m157.3 209.5c-8.2 1.6-7.4 32.3-6.4 48.1 2.4-11.2 5.9-32.6 8.2-47.9q-0.2-0.1-0.4-0.2-0.2 0-0.5 0-0.2-0.1-0.4-0.1-0.3 0-0.5 0.1z"/><path class="k" d="m173.7 192.4c0 0 3.3 46.9 2.7 66-0.8 19.9-10.2 85-10.2 85h-10.6c0 0-0.4-64-0.9-83.5-0.5-21.3-3.1-67.5-3.1-67.5z"/><path class="f" d="m168.3 339.2c0 0-0.7 4.4-0.7 4.4h-12.9l-0.3-3.9z"/><path class="t" d="m168.3 339.2c0 0-0.7 4.4-0.7 4.4h-12.9l-0.3-3.9z"/><path class="k" d="m169.4 147c0 12.6 6.7 17.8 6.7 17.8l10.9-10.7q-1-1.6-2-3.2-1-1.5-2.1-3.1-1.1-1.5-2.3-3-1.2-1.5-2.4-2.9c-6.3-7.2-8.8-3-8.8 5.1z"/><path class="l" d="m166.5 123.2q-0.1 0.5-0.4 0.9-0.3 0.5-0.7 0.8-0.3 0.3-0.8 0.6-0.4 0.2-0.9 0.3-0.5 0.1-1 0.4-0.5 0.3-0.8 0.7-0.4 0.4-0.6 0.9-0.2 0.5-0.3 1 1-0.3 1.8-0.8 0.9-0.6 1.6-1.3 0.8-0.7 1.3-1.6 0.5-0.9 0.8-1.9z"/><path class="k" d="m163.7 103.8c2.2-2.8-1.2-3-1.2-3 0.9-3.3-3.1-1.5-3.1-1.5-2.5-3.4-3.8 0.7-3.8 0.7-2.5-2.8-3 1.8-3 1.8-2.6-3.6-3.8 1.6-3.8 1.6-2.4-3.7-3.8 1.1-3.8 1.1-4.8-1.7-2.5 3.3-2.5 3.3-4.1 0.1-0.8 3.3-0.8 3.3-4.9 0-0.6 2.8-0.6 2.8-3.9 2.5 1 3.2 1 3.2-3.2 5 2.3 3.1 2.3 3.1-2.2 4.9 2.7 2.8 2.7 2.8-0.3 4.7 2.4 3.4 3.7 2.5 0.3 1 0.7 2 1.6 2.1 1.7 0.3 2-3 2-3 0 0 1.6 1.3 2.9 0.6 1.4-0.7 0.9-2.4 0.9-2.4q0.2 0.2 0.4 0.3 0.3 0.1 0.6 0.1 0.2 0 0.5-0.1 0.3-0.1 0.5-0.3c0.5-0.4 0.5-3.6-0.2-4.7l2.6-1c0 0 1.9-0.3 1.1-2.8q-0.2-0.6-0.3-1.1-0.1-0.6-0.1-1.2 0-0.6 0-1.1 0.1-0.6 0.3-1.2c2.9-1.4 0.5-3 0.5-3 3.4-2.2-0.4-2.9-0.4-2.9z"/><path class="p" d="m158.4 116q0.2 0.6 0.4 1.1 0.3 0.5 0.6 1 0.3 0.5 0.7 0.9 0.4 0.4 0.9 0.7c1.6 1.3 2.8 0 2.7-1.8-0.1-1.6-1.1-4.3-2.9-4.8-1.8-0.5-2.8 1.1-2.4 2.9z"/></svg>