<svg width="376" height="94" viewBox="0 0 376 94" fill="none" xmlns="http://www.w3.org/2000/svg">
<path d="M216.707 64.1687C216.926 64.1687 217.153 64.2233 217.39 64.3326C217.627 64.4419 217.809 64.5967 217.936 64.797L224.875 75.3685L223.7 75.3138L230.775 64.797C231.066 64.3781 231.44 64.1687 231.895 64.1687C232.259 64.1687 232.578 64.3053 232.851 64.5784C233.142 64.8334 233.288 65.1612 233.288 65.5618V81.9244C233.288 82.3251 233.161 82.662 232.906 82.9351C232.651 83.1901 232.314 83.3176 231.895 83.3176C231.458 83.3176 231.103 83.1901 230.83 82.9351C230.575 82.662 230.447 82.3251 230.447 81.9244V68.075L231.321 68.2662L225.312 77.4172C225.184 77.5811 225.02 77.7268 224.82 77.8543C224.62 77.9635 224.41 78.0091 224.192 77.9908C223.991 78.0091 223.782 77.9635 223.564 77.8543C223.363 77.7268 223.199 77.5811 223.072 77.4172L217.281 68.4028L217.936 67.3101V81.9244C217.936 82.3251 217.809 82.662 217.554 82.9351C217.317 83.1901 216.998 83.3176 216.598 83.3176C216.215 83.3176 215.897 83.1901 215.642 82.9351C215.405 82.662 215.287 82.3251 215.287 81.9244V65.5618C215.287 65.1794 215.423 64.8516 215.696 64.5784C215.988 64.3053 216.325 64.1687 216.707 64.1687ZM248.156 68.9491C248.538 68.9491 248.857 69.0857 249.112 69.3588C249.385 69.6138 249.521 69.9416 249.521 70.3422V77.5265C249.521 79.4204 248.993 80.9046 247.937 81.9791C246.881 83.0353 245.388 83.5634 243.457 83.5634C241.545 83.5634 240.061 83.0353 239.005 81.9791C237.967 80.9046 237.448 79.4204 237.448 77.5265V70.3422C237.448 69.9416 237.575 69.6138 237.83 69.3588C238.085 69.0857 238.413 68.9491 238.813 68.9491C239.196 68.9491 239.514 69.0857 239.769 69.3588C240.043 69.6138 240.179 69.9416 240.179 70.3422V77.5265C240.179 78.7102 240.452 79.5934 240.999 80.1762C241.563 80.7589 242.383 81.0503 243.457 81.0503C244.55 81.0503 245.378 80.7589 245.943 80.1762C246.508 79.5934 246.79 78.7102 246.79 77.5265V70.3422C246.79 69.9416 246.917 69.6138 247.172 69.3588C247.427 69.0857 247.755 68.9491 248.156 68.9491ZM252.473 81.0776C252.309 80.8227 252.236 80.5313 252.255 80.2035C252.273 79.8575 252.464 79.5661 252.828 79.3294C253.083 79.1655 253.347 79.1017 253.62 79.1381C253.912 79.1564 254.185 79.2929 254.44 79.5479C254.95 80.1124 255.514 80.5586 256.134 80.8864C256.771 81.2142 257.536 81.3781 258.428 81.3781C258.792 81.3599 259.166 81.3053 259.548 81.2142C259.931 81.1049 260.258 80.9228 260.531 80.6679C260.805 80.3947 260.941 80.0032 260.941 79.4933C260.941 79.038 260.796 78.6738 260.504 78.4006C260.213 78.1274 259.83 77.9089 259.357 77.745C258.883 77.5629 258.373 77.399 257.827 77.2533C257.244 77.0894 256.653 76.9073 256.052 76.707C255.469 76.5067 254.941 76.2517 254.467 75.9421C253.994 75.6143 253.602 75.1955 253.293 74.6856C253.001 74.1756 252.856 73.5474 252.856 72.8007C252.856 71.9448 253.092 71.2073 253.566 70.5881C254.057 69.9689 254.686 69.4863 255.451 69.1403C256.234 68.7943 257.08 68.6213 257.991 68.6213C258.519 68.6213 259.075 68.6941 259.657 68.8398C260.24 68.9673 260.805 69.1767 261.351 69.4681C261.897 69.7595 262.371 70.1419 262.771 70.6154C262.954 70.8521 263.054 71.1344 263.072 71.4622C263.108 71.79 262.963 72.0814 262.635 72.3363C262.416 72.5184 262.152 72.6004 261.843 72.5822C261.533 72.564 261.278 72.4638 261.078 72.2817C260.732 71.8446 260.286 71.5077 259.739 71.271C259.193 71.016 258.574 70.8886 257.882 70.8886C257.536 70.8886 257.172 70.9432 256.789 71.0525C256.425 71.1435 256.115 71.3165 255.86 71.5715C255.605 71.8264 255.478 72.1998 255.478 72.6914C255.478 73.1467 255.624 73.5109 255.915 73.7841C256.225 74.0573 256.625 74.2849 257.117 74.467C257.609 74.6491 258.146 74.813 258.729 74.9587C259.293 75.1044 259.849 75.2774 260.395 75.4777C260.959 75.6781 261.46 75.9421 261.897 76.2699C262.353 76.5795 262.717 76.9892 262.99 77.4992C263.281 77.9908 263.427 78.6191 263.427 79.384C263.427 80.2763 263.163 81.0412 262.635 81.6786C262.125 82.2977 261.469 82.7712 260.668 83.099C259.885 83.4268 259.056 83.5907 258.182 83.5907C257.144 83.5907 256.106 83.4086 255.068 83.0444C254.048 82.662 253.183 82.0064 252.473 81.0776ZM268.932 81.9244C268.932 82.3251 268.805 82.662 268.55 82.9351C268.295 83.1901 267.967 83.3176 267.567 83.3176C267.184 83.3176 266.856 83.1901 266.583 82.9351C266.328 82.662 266.201 82.3251 266.201 81.9244V70.233C266.201 69.8323 266.328 69.5045 266.583 69.2496C266.856 68.9764 267.184 68.8398 267.567 68.8398C267.967 68.8398 268.295 68.9764 268.55 69.2496C268.805 69.5045 268.932 69.8323 268.932 70.233V81.9244ZM267.539 67.0369C267.011 67.0369 266.629 66.9459 266.392 66.7638C266.155 66.5634 266.037 66.2356 266.037 65.7804V65.3433C266.037 64.888 266.164 64.5693 266.419 64.3872C266.674 64.2051 267.057 64.1141 267.567 64.1141C268.113 64.1141 268.504 64.2142 268.741 64.4145C268.978 64.5967 269.096 64.9062 269.096 65.3433V65.7804C269.096 66.2539 268.969 66.5817 268.714 66.7638C268.477 66.9459 268.086 67.0369 267.539 67.0369ZM278.972 68.6213C279.955 68.6213 280.829 68.7306 281.594 68.9491C282.359 69.1494 282.951 69.4408 283.37 69.8232C283.807 70.1874 284.025 70.6154 284.025 71.1071C284.025 71.4167 283.934 71.7081 283.752 71.9812C283.57 72.2362 283.297 72.3636 282.933 72.3636C282.678 72.3636 282.459 72.3181 282.277 72.2271C282.113 72.136 281.958 72.0267 281.813 71.8993C281.667 71.7718 281.485 71.6443 281.266 71.5168C281.066 71.4076 280.765 71.3165 280.365 71.2437C279.982 71.1708 279.636 71.1344 279.327 71.1344C278.362 71.1344 277.524 71.3529 276.814 71.79C276.122 72.2271 275.575 72.8189 275.175 73.5656C274.792 74.3122 274.601 75.159 274.601 76.106C274.601 77.053 274.792 77.8998 275.175 78.6464C275.575 79.3931 276.112 79.985 276.786 80.422C277.478 80.8591 278.28 81.0776 279.19 81.0776C279.736 81.0776 280.183 81.0412 280.529 80.9683C280.875 80.8773 281.175 80.768 281.43 80.6405C281.703 80.4766 281.931 80.3128 282.113 80.1489C282.313 79.9667 282.587 79.8757 282.933 79.8757C283.333 79.8757 283.634 80.0032 283.834 80.2581C284.052 80.4949 284.162 80.7953 284.162 81.1596C284.162 81.5602 283.916 81.9517 283.424 82.3342C282.951 82.6984 282.313 82.9989 281.512 83.2356C280.711 83.4724 279.828 83.5907 278.862 83.5907C277.442 83.5907 276.204 83.2629 275.147 82.6073C274.109 81.9517 273.299 81.0594 272.716 79.9303C272.152 78.8012 271.869 77.5265 271.869 76.106C271.869 74.6673 272.17 73.3926 272.771 72.2817C273.372 71.1526 274.209 70.2603 275.284 69.6047C276.358 68.9491 277.588 68.6213 278.972 68.6213ZM300.548 83.5907C299.237 83.5907 298.072 83.4086 297.052 83.0444C296.032 82.6802 295.058 82.0792 294.129 81.2415C293.929 81.0958 293.774 80.9228 293.664 80.7225C293.573 80.504 293.528 80.2854 293.528 80.0669C293.528 79.7209 293.655 79.4113 293.91 79.1381C294.165 78.865 294.484 78.7284 294.866 78.7284C295.158 78.7284 295.431 78.8286 295.686 79.0289C296.378 79.6663 297.097 80.1489 297.844 80.4766C298.609 80.8044 299.501 80.9683 300.521 80.9683C301.249 80.9683 301.914 80.85 302.515 80.6132C303.134 80.3765 303.626 80.0578 303.99 79.6572C304.354 79.2565 304.536 78.7921 304.536 78.264C304.536 77.6084 304.345 77.0712 303.963 76.6523C303.599 76.2153 303.061 75.8602 302.351 75.587C301.659 75.2956 300.821 75.0498 299.838 74.8495C298.927 74.6856 298.108 74.4579 297.38 74.1665C296.669 73.8752 296.059 73.5109 295.549 73.0739C295.039 72.6186 294.648 72.0814 294.375 71.4622C294.102 70.843 293.965 70.1237 293.965 69.3042C293.965 68.1933 294.256 67.2373 294.839 66.436C295.422 65.6347 296.214 65.0155 297.216 64.5784C298.217 64.1414 299.346 63.9229 300.603 63.9229C301.75 63.9229 302.825 64.105 303.826 64.4692C304.828 64.8152 305.638 65.2887 306.257 65.8896C306.694 66.2721 306.913 66.6818 306.913 67.1189C306.913 67.4467 306.776 67.7563 306.503 68.0476C306.248 68.3208 305.948 68.4574 305.602 68.4574C305.347 68.4574 305.128 68.3845 304.946 68.2389C304.655 67.9293 304.263 67.6561 303.772 67.4194C303.28 67.1644 302.752 66.955 302.187 66.7911C301.641 66.6272 301.113 66.5452 300.603 66.5452C299.783 66.5452 299.082 66.6636 298.5 66.9003C297.917 67.1189 297.471 67.4285 297.161 67.8291C296.851 68.2115 296.697 68.6668 296.697 69.1949C296.697 69.8141 296.87 70.324 297.216 70.7247C297.58 71.1253 298.081 71.4531 298.718 71.7081C299.355 71.9448 300.084 72.1633 300.903 72.3636C301.905 72.5822 302.797 72.828 303.58 73.1012C304.382 73.3744 305.055 73.7295 305.602 74.1665C306.148 74.5854 306.567 75.1135 306.858 75.7509C307.15 76.3883 307.295 77.1805 307.295 78.1274C307.295 79.2201 306.986 80.1762 306.367 80.9957C305.747 81.8152 304.928 82.4525 303.908 82.9078C302.907 83.3631 301.787 83.5907 300.548 83.5907ZM310.163 69.113H316.582C316.946 69.113 317.247 69.2405 317.483 69.4954C317.738 69.7322 317.866 70.0326 317.866 70.3969C317.866 70.7429 317.738 71.0342 317.483 71.271C317.247 71.5077 316.946 71.6261 316.582 71.6261H310.163C309.798 71.6261 309.489 71.5077 309.234 71.271C308.997 71.016 308.879 70.7156 308.879 70.3695C308.879 70.0053 308.997 69.7048 309.234 69.4681C309.489 69.2314 309.798 69.113 310.163 69.113ZM313.031 65.5618C313.431 65.5618 313.759 65.6984 314.014 65.9716C314.269 66.2265 314.397 66.5543 314.397 66.955V79.6298C314.397 79.9576 314.451 80.2217 314.561 80.422C314.67 80.6223 314.815 80.7589 314.998 80.8318C315.198 80.9046 315.398 80.941 315.599 80.941C315.799 80.941 315.972 80.9046 316.118 80.8318C316.281 80.7589 316.473 80.7225 316.691 80.7225C316.91 80.7225 317.11 80.8227 317.292 81.023C317.474 81.2233 317.565 81.4965 317.565 81.8425C317.565 82.2795 317.329 82.6347 316.855 82.9078C316.382 83.181 315.872 83.3176 315.325 83.3176C315.016 83.3176 314.652 83.2902 314.233 83.2356C313.814 83.181 313.404 83.0444 313.003 82.8259C312.621 82.6073 312.302 82.2613 312.047 81.7878C311.792 81.2961 311.665 80.6132 311.665 79.7391V66.955C311.665 66.5543 311.792 66.2265 312.047 65.9716C312.321 65.6984 312.648 65.5618 313.031 65.5618ZM331.599 68.9491C331.981 68.9491 332.3 69.0857 332.555 69.3588C332.828 69.6138 332.965 69.9416 332.965 70.3422V77.5265C332.965 79.4204 332.437 80.9046 331.38 81.9791C330.324 83.0353 328.831 83.5634 326.901 83.5634C324.988 83.5634 323.504 83.0353 322.448 81.9791C321.41 80.9046 320.891 79.4204 320.891 77.5265V70.3422C320.891 69.9416 321.018 69.6138 321.273 69.3588C321.528 69.0857 321.856 68.9491 322.257 68.9491C322.639 68.9491 322.958 69.0857 323.213 69.3588C323.486 69.6138 323.623 69.9416 323.623 70.3422V77.5265C323.623 78.7102 323.896 79.5934 324.442 80.1762C325.007 80.7589 325.826 81.0503 326.901 81.0503C327.993 81.0503 328.822 80.7589 329.386 80.1762C329.951 79.5934 330.233 78.7102 330.233 77.5265V70.3422C330.233 69.9416 330.361 69.6138 330.616 69.3588C330.871 69.0857 331.198 68.9491 331.599 68.9491ZM348.537 63.1034C348.937 63.1034 349.265 63.2308 349.52 63.4858C349.775 63.7407 349.903 64.0776 349.903 64.4965V81.9244C349.903 82.3251 349.775 82.662 349.52 82.9351C349.265 83.1901 348.937 83.3176 348.537 83.3176C348.154 83.3176 347.826 83.1901 347.553 82.9351C347.298 82.662 347.171 82.3251 347.171 81.9244V79.9576L347.745 79.985C347.745 80.3128 347.608 80.6861 347.335 81.1049C347.08 81.5056 346.725 81.8971 346.269 82.2795C345.814 82.662 345.277 82.9807 344.658 83.2356C344.039 83.4724 343.374 83.5907 342.664 83.5907C341.407 83.5907 340.278 83.272 339.276 82.6347C338.275 81.9791 337.483 81.0958 336.9 79.985C336.317 78.8559 336.026 77.5629 336.026 76.106C336.026 74.6491 336.317 73.3653 336.9 72.2544C337.483 71.1253 338.266 70.2421 339.249 69.6047C340.251 68.9491 341.362 68.6213 342.582 68.6213C343.347 68.6213 344.057 68.7488 344.712 69.0037C345.386 69.2587 345.969 69.5865 346.461 69.9871C346.952 70.3878 347.335 70.8157 347.608 71.271C347.881 71.7081 348.018 72.1269 348.018 72.5275L347.171 72.6095V64.4965C347.171 64.0959 347.298 63.7681 347.553 63.5131C347.826 63.2399 348.154 63.1034 348.537 63.1034ZM342.964 81.0776C343.838 81.0776 344.594 80.8591 345.231 80.422C345.887 79.985 346.397 79.3931 346.761 78.6464C347.125 77.8998 347.307 77.053 347.307 76.106C347.307 75.159 347.125 74.3122 346.761 73.5656C346.397 72.8189 345.887 72.2271 345.231 71.79C344.576 71.3529 343.82 71.1344 342.964 71.1344C342.126 71.1344 341.38 71.3529 340.724 71.79C340.087 72.2271 339.577 72.8189 339.194 73.5656C338.83 74.3122 338.648 75.159 338.648 76.106C338.648 77.053 338.83 77.8998 339.194 78.6464C339.577 79.3931 340.087 79.985 340.724 80.422C341.38 80.8591 342.126 81.0776 342.964 81.0776ZM356.297 81.9244C356.297 82.3251 356.17 82.662 355.915 82.9351C355.66 83.1901 355.332 83.3176 354.931 83.3176C354.549 83.3176 354.221 83.1901 353.948 82.9351C353.693 82.662 353.566 82.3251 353.566 81.9244V70.233C353.566 69.8323 353.693 69.5045 353.948 69.2496C354.221 68.9764 354.549 68.8398 354.931 68.8398C355.332 68.8398 355.66 68.9764 355.915 69.2496C356.17 69.5045 356.297 69.8323 356.297 70.233V81.9244ZM354.904 67.0369C354.376 67.0369 353.993 66.9459 353.757 66.7638C353.52 66.5634 353.402 66.2356 353.402 65.7804V65.3433C353.402 64.888 353.529 64.5693 353.784 64.3872C354.039 64.2051 354.421 64.1141 354.931 64.1141C355.478 64.1141 355.869 64.2142 356.106 64.4145C356.343 64.5967 356.461 64.9062 356.461 65.3433V65.7804C356.461 66.2539 356.334 66.5817 356.079 66.7638C355.842 66.9459 355.45 67.0369 354.904 67.0369ZM373.739 76.1333C373.739 77.5902 373.42 78.8832 372.783 80.0123C372.146 81.1231 371.281 81.9973 370.188 82.6347C369.095 83.272 367.866 83.5907 366.5 83.5907C365.134 83.5907 363.905 83.272 362.813 82.6347C361.72 81.9973 360.846 81.1231 360.19 80.0123C359.553 78.8832 359.234 77.5902 359.234 76.1333C359.234 74.6582 359.553 73.3653 360.19 72.2544C360.846 71.1253 361.72 70.2421 362.813 69.6047C363.905 68.9491 365.134 68.6213 366.5 68.6213C367.866 68.6213 369.095 68.9491 370.188 69.6047C371.281 70.2421 372.146 71.1253 372.783 72.2544C373.42 73.3653 373.739 74.6582 373.739 76.1333ZM371.008 76.1333C371.008 75.1317 370.807 74.2667 370.407 73.5383C370.006 72.7916 369.46 72.2089 368.768 71.79C368.094 71.3529 367.338 71.1344 366.5 71.1344C365.663 71.1344 364.898 71.3529 364.206 71.79C363.514 72.2089 362.967 72.7916 362.567 73.5383C362.166 74.2667 361.966 75.1317 361.966 76.1333C361.966 77.0985 362.166 77.9544 362.567 78.7011C362.967 79.4477 363.514 80.0305 364.206 80.4493C364.898 80.8682 365.663 81.0776 366.5 81.0776C367.338 81.0776 368.094 80.8682 368.768 80.4493C369.46 80.0305 370.006 79.4477 370.407 78.7011C370.807 77.9544 371.008 77.0985 371.008 76.1333Z" fill="#212121"/>
<path d="M115.186 45.4189C114.541 45.4189 113.992 45.2092 113.541 44.79C113.121 44.3384 112.912 43.7902 112.912 43.1451V9.90928C112.912 9.26424 113.121 8.73208 113.541 8.3128C113.992 7.86127 114.541 7.63551 115.186 7.63551H124.861C127.28 7.63551 129.409 8.16767 131.247 9.23199C133.118 10.2963 134.569 11.7638 135.601 13.6344C136.633 15.4728 137.149 17.6175 137.149 20.0687C137.149 22.4231 136.633 24.5195 135.601 26.3579C134.569 28.1962 133.118 29.6315 131.247 30.6635C129.409 31.6956 127.28 32.2116 124.861 32.2116H117.459V43.1451C117.459 43.7902 117.25 44.3384 116.83 44.79C116.411 45.2092 115.863 45.4189 115.186 45.4189ZM117.459 27.9544H124.861C126.409 27.9544 127.78 27.6157 128.973 26.9384C130.167 26.2611 131.102 25.3258 131.779 24.1325C132.457 22.9391 132.795 21.5846 132.795 20.0687C132.795 18.4561 132.457 17.037 131.779 15.8114C131.102 14.5858 130.167 13.6344 128.973 12.9571C127.78 12.2476 126.409 11.8928 124.861 11.8928H117.459V27.9544ZM148.428 45.4189C147.074 45.4189 145.864 45.048 144.8 44.3062C143.736 43.5644 142.897 42.5484 142.284 41.2584C141.704 39.936 141.413 38.4202 141.413 36.7108V9.81253C141.413 9.16748 141.607 8.65145 141.994 8.26443C142.413 7.84515 142.945 7.63551 143.59 7.63551C144.268 7.63551 144.8 7.84515 145.187 8.26443C145.606 8.65145 145.816 9.16748 145.816 9.81253V36.7108C145.816 37.9686 146.058 39.0007 146.541 39.807C147.057 40.6133 147.686 41.0165 148.428 41.0165H149.638C150.25 41.0165 150.734 41.2261 151.089 41.6454C151.444 42.0324 151.621 42.5646 151.621 43.2419C151.621 43.8869 151.347 44.4191 150.799 44.8383C150.283 45.2254 149.605 45.4189 148.767 45.4189H148.428ZM166.362 45.6124C163.943 45.6124 161.782 45.0319 159.879 43.8708C157.976 42.7097 156.476 41.1132 155.38 39.0813C154.283 37.0495 153.735 34.7596 153.735 32.2116C153.735 29.6315 154.316 27.3416 155.477 25.3419C156.67 23.31 158.266 21.7136 160.266 20.5525C162.298 19.3592 164.572 18.7625 167.087 18.7625C169.635 18.7625 171.909 19.3592 173.909 20.5525C175.908 21.7136 177.489 23.31 178.65 25.3419C179.843 27.3738 180.456 29.6637 180.488 32.2116L178.747 32.647C178.747 35.0982 178.198 37.3075 177.102 39.2749C176.005 41.2422 174.522 42.7903 172.651 43.9192C170.813 45.048 168.716 45.6124 166.362 45.6124ZM167.087 41.6454C168.829 41.6454 170.377 41.2422 171.732 40.4359C173.086 39.5974 174.151 38.4685 174.925 37.0495C175.731 35.5981 176.134 33.9855 176.134 32.2116C176.134 30.4055 175.731 28.7929 174.925 27.3738C174.151 25.9225 173.086 24.7936 171.732 23.9873C170.377 23.1488 168.829 22.7295 167.087 22.7295C165.41 22.7295 163.878 23.1488 162.492 23.9873C161.105 24.7936 160.008 25.9225 159.202 27.3738C158.428 28.7929 158.041 30.4055 158.041 32.2116C158.041 33.9855 158.428 35.5981 159.202 37.0495C160.008 38.4685 161.105 39.5974 162.492 40.4359C163.878 41.2422 165.41 41.6454 167.087 41.6454ZM178.214 45.4673C177.569 45.4673 177.037 45.2576 176.618 44.8383C176.199 44.4191 175.989 43.8869 175.989 43.2419V35.5014L176.908 30.857L180.488 32.2116V43.2419C180.488 43.8869 180.262 44.4191 179.811 44.8383C179.392 45.2576 178.859 45.4673 178.214 45.4673ZM192.427 56.9813C192.137 56.9813 191.798 56.9006 191.411 56.7394C190.121 56.1588 189.766 55.2397 190.347 53.9818L205.441 20.2138C206.021 18.9883 206.941 18.6335 208.198 19.1495C209.521 19.6978 209.892 20.617 209.311 21.9071L194.169 55.6267C193.782 56.5297 193.201 56.9813 192.427 56.9813ZM198.039 44.4513C197.458 44.7093 196.926 44.7416 196.442 44.5481C195.959 44.3546 195.572 43.9837 195.281 43.4354L184.3 21.8587C184.009 21.3104 183.961 20.7783 184.154 20.2622C184.38 19.7462 184.783 19.3753 185.364 19.1495C185.912 18.8915 186.428 18.8593 186.912 19.0528C187.428 19.214 187.815 19.5849 188.073 20.1655L198.668 41.6938C198.99 42.2743 199.103 42.8226 199.006 43.3386C198.91 43.8224 198.587 44.1933 198.039 44.4513ZM226.34 45.9027C224.276 45.9027 222.324 45.5963 220.486 44.9835C218.68 44.3384 217.1 43.4515 215.745 42.3227C214.39 41.1939 213.391 39.8715 212.746 38.3557C212.423 37.7429 212.407 37.1785 212.697 36.6624C213.02 36.1464 213.536 35.8077 214.245 35.6465C214.794 35.5175 215.326 35.5981 215.842 35.8884C216.358 36.1464 216.745 36.5495 217.003 37.0978C217.422 37.9686 218.083 38.7588 218.986 39.4684C219.889 40.1457 220.97 40.6939 222.228 41.1132C223.518 41.5325 224.888 41.7421 226.34 41.7421C227.952 41.7421 229.404 41.4841 230.694 40.9681C232.016 40.4521 233.064 39.7103 233.838 38.7427C234.645 37.7429 235.048 36.5334 235.048 35.1143C235.048 33.3082 234.354 31.7117 232.968 30.3249C231.581 28.938 229.355 28.0672 226.291 27.7125C222.389 27.2932 219.325 26.116 217.1 24.1809C214.874 22.2457 213.761 19.8591 213.761 17.0209C213.761 14.9567 214.326 13.199 215.455 11.7477C216.584 10.2641 218.132 9.13523 220.099 8.36118C222.066 7.58713 224.292 7.2001 226.775 7.2001C228.646 7.2001 230.307 7.47425 231.758 8.02253C233.242 8.57082 234.516 9.32875 235.58 10.2963C236.677 11.2316 237.612 12.3121 238.386 13.5376C238.773 14.1827 238.918 14.7955 238.821 15.376C238.757 15.9243 238.467 16.3597 237.951 16.6822C237.37 17.0048 236.757 17.0693 236.112 16.8757C235.499 16.6822 235.032 16.3113 234.709 15.763C234.225 14.8922 233.613 14.1343 232.871 13.4893C232.129 12.8442 231.242 12.3282 230.21 11.9412C229.21 11.5541 228.017 11.3606 226.63 11.3606C224.179 11.3284 222.163 11.8122 220.583 12.812C219.002 13.7795 218.212 15.247 218.212 17.2144C218.212 18.2465 218.47 19.214 218.986 20.1171C219.535 20.9879 220.47 21.7619 221.792 22.4392C223.147 23.0843 225.034 23.5519 227.452 23.8422C231.355 24.2937 234.338 25.4871 236.402 27.4222C238.467 29.3251 239.499 31.8407 239.499 34.9692C239.499 36.7753 239.144 38.3557 238.434 39.7103C237.757 41.0648 236.806 42.2098 235.58 43.1451C234.354 44.0482 232.935 44.7416 231.323 45.2254C229.742 45.6769 228.081 45.9027 226.34 45.9027ZM258.789 45.6124C256.209 45.6124 253.903 45.048 251.871 43.9192C249.871 42.7581 248.291 41.1777 247.13 39.1781C246.001 37.1462 245.436 34.8241 245.436 32.2116C245.436 29.567 246.001 27.2448 247.13 25.2452C248.291 23.2133 249.871 21.6329 251.871 20.5041C253.903 19.343 256.209 18.7625 258.789 18.7625C261.369 18.7625 263.659 19.343 265.658 20.5041C267.69 21.6329 269.271 23.2133 270.399 25.2452C271.561 27.2448 272.157 29.567 272.189 32.2116C272.189 34.8241 271.609 37.1462 270.448 39.1781C269.287 41.1777 267.706 42.7581 265.707 43.9192C263.707 45.048 261.401 45.6124 258.789 45.6124ZM258.789 41.6454C260.563 41.6454 262.127 41.2422 263.481 40.4359C264.836 39.6296 265.9 38.5169 266.674 37.0978C267.448 35.6787 267.835 34.05 267.835 32.2116C267.835 30.3733 267.448 28.7445 266.674 27.3254C265.9 25.8741 264.836 24.7453 263.481 23.939C262.127 23.1327 260.563 22.7295 258.789 22.7295C257.047 22.7295 255.483 23.1327 254.096 23.939C252.741 24.7453 251.677 25.8741 250.903 27.3254C250.129 28.7445 249.742 30.3733 249.742 32.2116C249.742 34.05 250.129 35.6787 250.903 37.0978C251.677 38.5169 252.741 39.6296 254.096 40.4359C255.483 41.2422 257.047 41.6454 258.789 41.6454ZM290.756 45.6608C288.498 45.6608 286.483 45.1931 284.709 44.2578C282.935 43.2902 281.532 41.8873 280.5 40.0489C279.468 38.2105 278.952 35.969 278.952 33.3243V21.133C278.952 20.5202 279.161 20.0042 279.581 19.5849C280.032 19.1334 280.564 18.9076 281.177 18.9076C281.822 18.9076 282.354 19.1334 282.774 19.5849C283.225 20.0042 283.451 20.5202 283.451 21.133V33.3243C283.451 35.195 283.806 36.7431 284.515 37.9686C285.225 39.1942 286.176 40.1134 287.37 40.7262C288.595 41.3067 289.966 41.597 291.482 41.597C292.965 41.597 294.272 41.3067 295.4 40.7262C296.561 40.1457 297.481 39.3716 298.158 38.404C298.868 37.4042 299.222 36.2915 299.222 35.0659H302.125C302.06 37.0656 301.528 38.8717 300.529 40.4843C299.561 42.0969 298.222 43.3709 296.513 44.3062C294.804 45.2092 292.885 45.6608 290.756 45.6608ZM301.448 45.4189C300.803 45.4189 300.27 45.2092 299.851 44.79C299.432 44.3707 299.222 43.8385 299.222 43.1935V21.133C299.222 20.488 299.432 19.9558 299.851 19.5365C300.27 19.1173 300.803 18.9076 301.448 18.9076C302.093 18.9076 302.625 19.1173 303.044 19.5365C303.463 19.9558 303.673 20.488 303.673 21.133V43.1935C303.673 43.8385 303.463 44.3707 303.044 44.79C302.625 45.2092 302.093 45.4189 301.448 45.4189ZM334.862 45.4673C334.217 45.4673 333.669 45.2576 333.217 44.8383C332.798 44.3868 332.588 43.8547 332.588 43.2419V31.0506C332.588 29.1477 332.233 27.5996 331.524 26.4063C330.814 25.1807 329.863 24.2776 328.67 23.6971C327.476 23.0843 326.105 22.7779 324.557 22.7779C323.106 22.7779 321.8 23.0682 320.639 23.6487C319.478 24.2292 318.542 25.0033 317.833 25.9708C317.155 26.9384 316.817 28.0511 316.817 29.3089H313.914C313.946 27.2771 314.462 25.4709 315.462 23.8906C316.462 22.278 317.817 21.0201 319.526 20.1171C321.235 19.1818 323.154 18.7141 325.283 18.7141C327.541 18.7141 329.556 19.1979 331.33 20.1655C333.104 21.1008 334.507 22.4876 335.539 24.326C336.571 26.1644 337.087 28.4059 337.087 31.0506V43.2419C337.087 43.8547 336.862 44.3868 336.41 44.8383C335.991 45.2576 335.475 45.4673 334.862 45.4673ZM314.591 45.4673C313.946 45.4673 313.414 45.2576 312.995 44.8383C312.576 44.4191 312.366 43.8869 312.366 43.2419V21.1814C312.366 20.5041 312.576 19.9719 312.995 19.5849C313.414 19.1656 313.946 18.956 314.591 18.956C315.269 18.956 315.801 19.1656 316.188 19.5849C316.607 19.9719 316.817 20.5041 316.817 21.1814V43.2419C316.817 43.8869 316.607 44.4191 316.188 44.8383C315.801 45.2576 315.269 45.4673 314.591 45.4673ZM357.246 45.6124C354.73 45.6124 352.456 45.0319 350.425 43.8708C348.425 42.6775 346.828 41.0648 345.635 39.033C344.474 37.0011 343.894 34.7112 343.894 32.1633C343.894 29.6153 344.442 27.3416 345.538 25.3419C346.635 23.31 348.135 21.7136 350.038 20.5525C351.94 19.3592 354.101 18.7625 356.52 18.7625C358.52 18.7625 360.342 19.1818 361.987 20.0203C363.664 20.8589 365.051 21.9877 366.147 23.4068V9.86091C366.147 9.18361 366.357 8.65145 366.776 8.26443C367.196 7.84515 367.728 7.63551 368.373 7.63551C369.05 7.63551 369.598 7.84515 370.018 8.26443C370.437 8.65145 370.647 9.18361 370.647 9.86091V32.26C370.614 34.7757 370.002 37.0495 368.808 39.0813C367.647 41.1132 366.051 42.7097 364.019 43.8708C362.019 45.0319 359.762 45.6124 357.246 45.6124ZM357.246 41.6454C358.988 41.6454 360.536 41.2422 361.89 40.4359C363.245 39.5974 364.309 38.4685 365.083 37.0495C365.889 35.5981 366.293 33.9694 366.293 32.1633C366.293 30.3571 365.889 28.7445 365.083 27.3254C364.309 25.9063 363.245 24.7936 361.89 23.9873C360.536 23.1488 358.988 22.7295 357.246 22.7295C355.569 22.7295 354.037 23.1488 352.65 23.9873C351.263 24.7936 350.167 25.9063 349.36 27.3254C348.586 28.7445 348.199 30.3571 348.199 32.1633C348.199 33.9694 348.586 35.5981 349.36 37.0495C350.167 38.4685 351.263 39.5974 352.65 40.4359C354.037 41.2422 355.569 41.6454 357.246 41.6454Z" fill="#212121"/>
<path d="M25.554 13.14C27.625 10.605 32.96 8.637 32.96 4.873C32.96 2.475 31.302 1 29.257 1C25.809 1 25.554 4.22499 25.554 4.22499C25.554 4.22499 25.299 1 21.851 1C19.806 1 18.1479 2.476 18.1479 4.873C18.1479 8.638 23.483 10.605 25.554 13.14Z" fill="#155DFC"/>
<path d="M11.286 45.869C14.163 42.348 21.572 39.615 21.572 34.387C21.572 31.057 19.269 29.007 16.429 29.007C11.641 29.007 11.286 33.486 11.286 33.486C11.286 33.486 10.931 29.007 6.143 29.007C3.303 29.007 1 31.056 1 34.387C1 39.616 8.409 42.348 11.286 45.869Z" fill="#155DFC"/>
<path d="M201.933 75.335H81.607H75.351C69.867 75.335 65.402 70.861 65.402 65.376C65.402 59.882 69.867 55.427 75.351 55.427C80.835 55.427 85.3 59.882 85.3 65.376V65.396C85.3 67.257 86.815 68.772 88.676 68.772C90.537 68.772 92.042 67.257 92.042 65.396V16.642C92.042 13.583 90.686 10.732 88.32 8.80199C85.944 6.87199 82.875 6.119 79.866 6.743L40.417 15.029C35.745 15.989 32.359 20.157 32.359 24.928V62.763C29.577 60.694 26.132 59.467 22.41 59.467C13.204 59.467 5.70996 66.961 5.70996 76.167C5.70996 85.373 13.204 92.857 22.41 92.857C31.587 92.857 39.061 85.413 39.1 76.236C39.1 76.236 39.1 76.226 39.1 76.216V38.272L85.3 28.442V51.973C82.518 49.904 79.073 48.676 75.351 48.676C66.145 48.676 58.661 56.17 58.661 65.376C58.661 73.909 65.105 80.977 73.391 81.947C73.628 82.006 73.886 82.036 74.143 82.036H74.371C74.698 82.056 75.024 82.066 75.351 82.066C75.688 82.066 76.024 82.056 76.361 82.036H201.934C203.785 82.036 205.29 80.541 205.29 78.69C205.289 76.839 203.785 75.335 201.933 75.335ZM22.405 86.113C16.919 86.113 12.456 81.65 12.456 76.164C12.456 70.678 16.919 66.215 22.405 66.215C27.891 66.215 32.354 70.678 32.354 76.164C32.354 81.65 27.891 86.113 22.405 86.113ZM39.099 31.373V24.931C39.099 23.34 40.23 21.951 41.798 21.627L81.246 13.341C81.475 13.294 81.706 13.27 81.934 13.27C82.702 13.27 83.45 13.532 84.058 14.028C84.848 14.671 85.301 15.625 85.301 16.643V21.546L39.099 31.373Z" fill="#155DFC"/>
</svg>
