<svg width="118" height="118" viewBox="0 0 118 118" fill="none" xmlns="http://www.w3.org/2000/svg">
<path d="M59.0074 118C26.4786 118 0 91.5362 0 59.0074C0 26.4786 26.4638 0 59.0074 0C91.5362 0 118 26.4638 118 59.0074C118 91.5362 91.5362 118 59.0074 118ZM59.0074 14.2304C34.3187 14.2304 14.2304 34.3187 14.2304 59.0074C14.2304 83.6961 34.3187 103.784 59.0074 103.784C83.6961 103.784 103.784 83.6961 103.784 59.0074C103.784 34.3187 83.6961 14.2304 59.0074 14.2304Z" fill="#BDD2EF"/>
<path d="M47.9114 34.5241L85.0283 55.6351C87.6572 57.1274 87.6572 60.858 85.0283 62.3503L47.9114 83.4759C45.2825 84.9681 42 83.0955 42 80.111V37.889C42 34.9045 45.2825 33.0319 47.9114 34.5241Z" fill="white"/>
</svg>
